<mxfile host="app.diagrams.net" modified="2023-06-24T01:16:08.559Z" agent="Mozilla/5.0 (Windows NT 10.0; Win64; x64) AppleWebKit/537.36 (KHTML, like Gecko) Chrome/114.0.0.0 Safari/537.36" etag="3goz7qPjvfhJcm7xLAVT" version="21.5.0" type="github">
  <diagram name="Page-1" id="kpltpQUFjTTBAhDYNafU">
    <mxGraphModel dx="2630" dy="2193" grid="1" gridSize="10" guides="1" tooltips="1" connect="1" arrows="1" fold="1" page="1" pageScale="1" pageWidth="850" pageHeight="1100" math="0" shadow="0">
      <root>
        <mxCell id="0" />
        <mxCell id="1" parent="0" />
        <mxCell id="t371tnkArtYXUVjtmktd-28" value="" style="rounded=1;arcSize=10;dashed=1;strokeColor=#F59D56;fillColor=none;gradientColor=none;dashPattern=8 4;strokeWidth=2;" parent="1" vertex="1">
          <mxGeometry x="170" y="40" width="500" height="554" as="geometry" />
        </mxCell>
        <mxCell id="RBwo3LP9QpBpMymfKp9m-21" value="" style="shape=flexArrow;endArrow=classic;startArrow=classic;html=1;rounded=0;" edge="1" parent="1">
          <mxGeometry width="100" height="100" relative="1" as="geometry">
            <mxPoint x="565" y="310" as="sourcePoint" />
            <mxPoint x="440" y="200" as="targetPoint" />
            <Array as="points">
              <mxPoint x="440" y="350" />
              <mxPoint x="440" y="200" />
            </Array>
          </mxGeometry>
        </mxCell>
        <mxCell id="RBwo3LP9QpBpMymfKp9m-24" value="" style="rounded=1;whiteSpace=wrap;html=1;" vertex="1" parent="1">
          <mxGeometry x="390" y="350" width="120" height="120" as="geometry" />
        </mxCell>
        <mxCell id="RBwo3LP9QpBpMymfKp9m-17" value="" style="shape=flexArrow;endArrow=classic;html=1;rounded=0;" edge="1" parent="1">
          <mxGeometry width="50" height="50" relative="1" as="geometry">
            <mxPoint x="-60" y="71" as="sourcePoint" />
            <mxPoint x="50" y="240" as="targetPoint" />
          </mxGeometry>
        </mxCell>
        <mxCell id="RBwo3LP9QpBpMymfKp9m-18" value="" style="rounded=1;whiteSpace=wrap;html=1;" vertex="1" parent="1">
          <mxGeometry x="-182" y="-60" width="282" height="140" as="geometry" />
        </mxCell>
        <mxCell id="t371tnkArtYXUVjtmktd-3" value="" style="shape=mxgraph.cisco.storage.cloud;sketch=0;html=1;pointerEvents=1;dashed=0;fillColor=#1A1A1A;strokeColor=#ffffff;strokeWidth=2;verticalLabelPosition=bottom;verticalAlign=top;align=center;outlineConnect=0;" parent="1" vertex="1">
          <mxGeometry x="480" y="130" width="180" height="112" as="geometry" />
        </mxCell>
        <mxCell id="t371tnkArtYXUVjtmktd-7" value="" style="outlineConnect=0;dashed=0;verticalLabelPosition=bottom;verticalAlign=top;align=center;html=1;shape=mxgraph.aws3.http_notification;fillColor=#19B2FF;gradientColor=none;" parent="1" vertex="1">
          <mxGeometry x="-160" y="220" width="75" height="52" as="geometry" />
        </mxCell>
        <mxCell id="t371tnkArtYXUVjtmktd-42" style="edgeStyle=orthogonalEdgeStyle;rounded=0;orthogonalLoop=1;jettySize=auto;html=1;exitX=1;exitY=0.5;exitDx=0;exitDy=0;exitPerimeter=0;strokeColor=#FF3333;strokeWidth=3;entryX=0.04;entryY=0.5;entryDx=0;entryDy=0;entryPerimeter=0;" parent="1" source="t371tnkArtYXUVjtmktd-14" target="t371tnkArtYXUVjtmktd-3" edge="1">
          <mxGeometry relative="1" as="geometry" />
        </mxCell>
        <mxCell id="t371tnkArtYXUVjtmktd-9" value="" style="shape=mxgraph.cisco.security.firewall;sketch=0;html=1;pointerEvents=1;dashed=0;fillColor=#1A1A1A;strokeColor=#ffffff;strokeWidth=2;verticalLabelPosition=bottom;verticalAlign=top;align=center;outlineConnect=0;" parent="1" vertex="1">
          <mxGeometry x="50" y="220" width="89.5" height="148" as="geometry" />
        </mxCell>
        <mxCell id="t371tnkArtYXUVjtmktd-2" value="" style="shape=mxgraph.cisco.hubs_and_gateways.generic_gateway;sketch=0;html=1;pointerEvents=1;dashed=0;fillColor=#1A1A1A;strokeColor=#ffffff;strokeWidth=2;verticalLabelPosition=bottom;verticalAlign=top;align=center;outlineConnect=0;" parent="1" vertex="1">
          <mxGeometry x="10" y="310" width="66" height="74" as="geometry" />
        </mxCell>
        <mxCell id="RBwo3LP9QpBpMymfKp9m-4" style="edgeStyle=orthogonalEdgeStyle;rounded=0;orthogonalLoop=1;jettySize=auto;html=1;exitX=0.99;exitY=0.38;exitDx=0;exitDy=0;exitPerimeter=0;entryX=0;entryY=0.5;entryDx=0;entryDy=0;entryPerimeter=0;endArrow=none;endFill=0;startArrow=classic;startFill=1;strokeWidth=3;strokeColor=#19B2FF;" edge="1" parent="1" source="t371tnkArtYXUVjtmktd-18" target="t371tnkArtYXUVjtmktd-9">
          <mxGeometry relative="1" as="geometry" />
        </mxCell>
        <mxCell id="RBwo3LP9QpBpMymfKp9m-7" style="edgeStyle=orthogonalEdgeStyle;rounded=0;orthogonalLoop=1;jettySize=auto;html=1;startArrow=classic;startFill=1;strokeWidth=3;strokeColor=#B3B3B3;dashed=1;dashPattern=8 8;" edge="1" parent="1" target="t371tnkArtYXUVjtmktd-24">
          <mxGeometry relative="1" as="geometry">
            <mxPoint x="-291.4" y="350" as="sourcePoint" />
            <mxPoint x="545" y="459.9599999999995" as="targetPoint" />
            <Array as="points">
              <mxPoint x="-161" y="350" />
              <mxPoint x="-161" y="520" />
            </Array>
          </mxGeometry>
        </mxCell>
        <mxCell id="t371tnkArtYXUVjtmktd-18" value="" style="shape=mxgraph.cisco.people.pc_man;sketch=0;html=1;pointerEvents=1;dashed=0;fillColor=#1A1A1A;strokeColor=#ffffff;strokeWidth=2;verticalLabelPosition=bottom;verticalAlign=top;align=center;outlineConnect=0;" parent="1" vertex="1">
          <mxGeometry x="-430" y="220" width="140" height="194" as="geometry" />
        </mxCell>
        <mxCell id="t371tnkArtYXUVjtmktd-20" value="" style="shape=image;verticalLabelPosition=bottom;labelBackgroundColor=default;verticalAlign=top;aspect=fixed;imageAspect=0;image=data:image/png,iVBORw0KGgoAAAANSUhEUgAAAQAAAAEACAYAAABccqhmAAAAGXRFWHRTb2Z0d2FyZQBBZG9iZSBJbWFnZVJlYWR5ccllPAAAA2ZpVFh0WE1MOmNvbS5hZG9iZS54bXAAAAAAADw/eHBhY2tldCBiZWdpbj0i77u/IiBpZD0iVzVNME1wQ2VoaUh6cmVTek5UY3prYzlkIj8+IDx4OnhtcG1ldGEgeG1sbnM6eD0iYWRvYmU6bnM6bWV0YS8iIHg6eG1wdGs9IkFkb2JlIFhNUCBDb3JlIDUuMy1jMDExIDY2LjE0NTY2MSwgMjAxMi8wMi8wNi0xNDo1NjoyNyAgICAgICAgIj4gPHJkZjpSREYgeG1sbnM6cmRmPSJodHRwOi8vd3d3LnczLm9yZy8xOTk5LzAyLzIyLXJkZi1zeW50YXgtbnMjIj4gPHJkZjpEZXNjcmlwdGlvbiByZGY6YWJvdXQ9IiIgeG1sbnM6eG1wTU09Imh0dHA6Ly9ucy5hZG9iZS5jb20veGFwLzEuMC9tbS8iIHhtbG5zOnN0UmVmPSJodHRwOi8vbnMuYWRvYmUuY29tL3hhcC8xLjAvc1R5cGUvUmVzb3VyY2VSZWYjIiB4bWxuczp4bXA9Imh0dHA6Ly9ucy5hZG9iZS5jb20veGFwLzEuMC8iIHhtcE1NOk9yaWdpbmFsRG9jdW1lbnRJRD0ieG1wLmRpZDo5QkFCOUEyQ0Y4RDBFNzExOTUyOEE0NEI1NzMyODQxOSIgeG1wTU06RG9jdW1lbnRJRD0ieG1wLmRpZDpDOTJBOEZGQUVBMjQxMUU3QjEzQkQzRTZGRjFEMzhGNiIgeG1wTU06SW5zdGFuY2VJRD0ieG1wLmlpZDpDOTJBOEZGOUVBMjQxMUU3QjEzQkQzRTZGRjFEMzhGNiIgeG1wOkNyZWF0b3JUb29sPSJBZG9iZSBQaG90b3Nob3AgQ1M2IChXaW5kb3dzKSI+IDx4bXBNTTpEZXJpdmVkRnJvbSBzdFJlZjppbnN0YW5jZUlEPSJ4bXAuaWlkOjlCRjE4RjQxNDFEM0U3MTE4Q0I0RTJGQjlGMzQ2MEY2IiBzdFJlZjpkb2N1bWVudElEPSJ4bXAuZGlkOjlCQUI5QTJDRjhEMEU3MTE5NTI4QTQ0QjU3MzI4NDE5Ii8+IDwvcmRmOkRlc2NyaXB0aW9uPiA8L3JkZjpSREY+IDwveDp4bXBtZXRhPiA8P3hwYWNrZXQgZW5kPSJyIj8+O4KxbQAAHYtJREFUeNrsnQmYVcWZhovLIoqIWwsoAVm6sUFESEAMyCaiZgZGBAajTEATI8ko6gQDoyZIBhEclyiO4owCKqIGt8FMJMoAsqiggsgightGZVPTCLIpYeo7p07Ptb3LqXvPubeq7vc+z//QQPfpc6vq/2r7669alZWVglhNfWktlTWWdpy045Udl2T4vobS6qivD6/xnL3S9kn7Rtou9fUX0j6X9lmS4e/bpH2gbB+rwF7qsAisAM56ijSodXvl7Ccraxrh7whEoUzj57ZI+1AZBGGdtLelbVCiQigARIMG0r4vrYv683RpFdJqG/q+TZWdWePfD0rbKO1NaSulrZD2hrSvWMXmUItTgKKDYftZ0nqqP091WJgxvVgrbYm0xerPbWwCFIBS4ghpvaX1k3aOcvhSBlOGF5UtkraHTYQC4BonSRugrK/wF+HId8GC4gJpzyn7hEVCAbCVJtIulDZMWg9pCRaJFn+TtlTaE9KelraVRUIBMJ1jpQ1VTo85fW0WSSQcVGsGEIM5wt+eJBQAM8pQOfvl0gZzeF+QacJT0v5LicIhFgkFoBicIG2ktJ8Kf5uOFB5sMz4obaa07SwOCkAhwL78tdIuklaPxWEEB6T9Qdrtwo87ICHhwlT4Yf65wt+qWiXtJ3R+o0BdDFd186Kqq1osFgpAvtRRzr5a2jzh790Ts+mn6mq1qjtGu1IAcnJ8zO8R0/6QtA4sEuvooOpug6pLCgEFIFR5YG6/XtoMaW1YJNbTWtXlelW3bPMUgJScJ/zDKo9JK2dxOEe5qts3VF0TCoBHO2nPKzudxeE8pyfVdzsKQOlytLS7hb9YxB6hNEd8qPupqi1QAEoEbA+NkLZJ2lWCi0OlDOr+StUWRogS3DosNQFoJfx94pnCT5lFiFBtAW1ivvAXDSkADir9GOEnozib7Z2kAUe110i7rlRGhqUgAFj0WS7t38V3E2ESUhO0kVtVm+lEAbD7s40Tfi66zmzXRJPOSgTGuewnrn6w5sLPLHOLtLpsyyRH6qo2tEC1KQqABfyj8E+E9WL7JRGBtrRatS0KgKEg2eZ04WeNOYZtlkTM0aptTVdtjQJgEBVqvnYp2ymJmUtVW2tLATCDQdJeE0yvTQoH2toK1fYoAEV89wnCzw93FNskKTBHqbb3O5v9yNYXx/VZT0r7rWDmF1I80PZ+o9piAwpAYUC+/QUuDL+IMwxSbbIJBSBecHzzZWld2eaIYXRVbbMdBSAe+gj/ppiWbGvEUFqqNtqHAhAtSOWERI/c3yemc4xqqz+mAETDKGmzBNNwE3uop9rsKNNftHZZWZnJ7zdW2u8FU5cR+8AOwd8L/yqzZRQAfbC9cjPbEbEc3FOAm44XUwDCg+CKm9h2iCP0UaPYRRSA7CC4ZzzbDHEMnCjETcYvUQDSg1RMk9hWiMMjgb0mrQmYJAC/EP6CHyEuc47wrzJ/3YSXMWV1/WLh52cnpBSYqto8BUD4mVhxd1tttgtSItRWbb5vqQsAbnB9WjDIh5Qe9VTb71CqAtBM2p+kNWJbICVKI+UDzUpNAJBT7X+K+cEJMYSgIzyiVAQAIZKzpZ3Guiekeio8WxQhuU0xtgER6DOKdU7ItzhFFCFQqNACgCuZ7xc83ENIKnoKP8Htuy5OAVqpYQ63+whJ74+PKl9xSgCwwIEMqkzoQUhmjlG+coRLAnCP8G/pJYRkB77yH64IwCWCN/YQostI5TtWC0BrafexLgnJCfhOua0CgMU+5EVryHokJCfgO49Iq2OjAFwvrRvrkJC8OEP5UizUqqysjOO5nYR/g2pd1h8hefO16kxX2jACwHDlATo/IZFRV/lUHRsE4FppnVlnhEQ+qv6V6VMArPqvkXY464uQyEE+QRyiiyxUOMoRAE4y/Sedn5DYOFz5WC0TBWCkMCDFESGOg8zCkQXWRTUFOFraRmllrB9CYgdZhREg9KUpI4AJdH5CCsYJws+rYcQUoL20X7JOCCkoV4oIwoSjEIDbRIyhioSQlBymfK+oAnCu8LP8EEIKz0Bp/YslANiKuIV1QEhRmSzy2BbMRwAuFH50EiGkeHRSvlhQAcDP3cSyJ8QIJuTqy7kKwDBpp7LcCTGC9sonCyIAWPEfzzInxChuEjnsxuUiABdJa8vyJsQoKpRvxioAWG38V5Y1IUYyVmjuCOgKwABp7VjOhBgJ1uX6xykA17GMCTGaf4lLALDf2IPlS4jR9Bca8Tk6AnANy5YQK7gmagHA8cOLWK6EWAF8tXGUAjBSWj2WKyFWUE/5bFbCZATCtsIG4e8zkoi54IILRPv27bN+37p168Szzz4b2fOSmTt3rlizZk3a/2/atKkYOnSoqKioEE2aNKn+961bt4qNGzeKu+++O+vv6N27t+jevXvO5RT285NqkKHrFGmHMn1TmMihnnT++ICzXnJJuDsgb7zxRvHMM8+Im2++OZLnBUyfPj3t/91www1i0KBB4ogjvntbdbt27UTfvn3F4MGDvWc89NBDaZ8D59d9r2SmTJnCxqJHhfLdl/IVgMtZlvHRqZO/YLt582axdOnStN8DZ4MTwonQI1955ZU5P68mW7ZsSfnv99xzj+fgYP369eK5554TK1eu9EYL6NFPO+00z/nLysrE2LFjve9LJwIff/yxePTRR1P+XyAMK1asEJs2bUr5Pfi9RJufZxOAbFOAY6V9Iq0+yzIeXn/9dc+x4RyZevYOHTqIW2+9VbRo0cL7+/XXX59ySBz2edlAzx845rRp09IO8yFG6P3xXnv27BEDBgxIKyjpPtcTTzyR8TORnNkn7SRpX6T7hmyLgMPo/PEB5wmG1ughM4Fe97LLLvOcDPTr1y+v52UDw/6g5880x4ez33///d7X+N1YK9ChdevW1V/T+SOnvshySjCbAFzMMoyPM844o/prDNnDDNU//PBD7+vkxbhUz8tnyIyFxEBIMOzPRrLjNmyodxt8sGC5Y8cONoh4uDjXNQCMNbuz/OIjebV+0aJFkT4v06q+Djt37gz1fVijyIXy8nIKQLx0V768WXcEMEREeAURST0FCIbZurz77ruRPi8djRo1irUMGjf241VWrVrFBhEP8OGhuUwBBrPs4iUYxmM/PaxgBD3tp59+mvZ5qcRBh/fee6/6ayzqxUmwqJnvmgXJyGBdAcDKYTeWW7wEzhx21RyLgAALgXPmzEn7vF27duX1Xpg+IDgoeObMmTOrRxdRgq1EnTUQkjNYHGqmIwADOPyPF2x/BSDKLYyzBCvzCAaqKRq6z8vGXXfd5e3Lg65du3qLgYgLSHbafEEcQZRrICTjNCDlUC7dIuC5LLN46dy5c/XXy5cvz/i9ydF4CxYsSLm/n/y8K664QgwfPjzjM+HMmZwOAjNy5EgxevTo6mAfBAXBsGD3wgsvePv/Onv+NQl2DNj7FwQcE74vjADUldaP5RUvzZo1+87QvqZztGnTRpx88snVW3KZgnuSnxfMqzPx+eefh3pPxADAsDWI2INu3bp5YoAgIRimChgt5CIEQdRi8poDiQ34NA4JHcgmAEj6cSTLK16C7S+QKUYeve38+fM958+0tRc8DzsAQ4YMifx9sdcPCw4GBaOCgQMHio4dO3oipisC+HmdNRCSF/BpbAkuzCYA57tcCsFiVrEbXbD9hSE9HDwAPSycCgwbNiz0fn6httNQbsGoIDgrgBHH1VdfLcaNG6dVD4EARLFmQULxo5oCkGoR0NnLPjGMffzxx1MOuQtNMEx/7bXXqntXGIbTQbgv5vK6zyvkdhoOJAUBPKlCkzORHLWYbQ2kmEyePFk8+eST31pktZjvrO3VFABk/ungqvPjOC0WrvI5JBPVuwTUXABDD4tVfoDeNUzDy/S8uMFiIEh1XDgTQdQixM7kKQBGNRhVYbSTXM6WgsbUOJMA9HLZ+adOnZrxzHqhaN68efXXqVbiIVI6o4Bsz9MZlqOsYHHs+6eaigVnG0wGHQaEDm3IgZFAr0wCcJaLc/5rr73W61VNcH6QbftLdxQQ1XZa27ZtxaRJkzzr37+/1mfRJaqoxUKKwKuvvuqNBOIWx5jpmUkAfuiaAGAPHfPUYg/7kwmz/aUzCohqOw2jh+B3hkgV53HmmWd6fwZBQ2HJFNJsKljzQPmgTVlMj3QCgElcR5ecHz0nVtVnzZpl1Hthbz/o6dOhMwoI87ywoJcDWNTLFvUHRwhW8nXO8id/lo8++siqNoXUZGhTFk8FcHvQkakE4Acih9tFTQY9J+aYJiWaSE7akW37K8woQOd5YUByD/xOPPO2225LufCF34nV8SB+AVuZOmWcHLVoWxIQjJLWrl2rtUNjGLVRBcFfkh2+q2tzfyg1Fv5MInn7K9uQPRgFwNGCUUDNuIDk5wXz92xkSvGF548ZM8ZzfogAnoc1lOTz+sln/xEJqLP/D4KoRVtzAEC0sCCINmZpEBN8fXHNEUAnlwQgcIxgm8oUdJN2BKfy0o0CdFOAhxl2o5fDMWBEH8JJMcyH0wcWzPmRw0/X+UEQtfjBBx9YKwBfffWVdvozg6geASQnBUUWiUpXBADzU6xk9+rl5M5mwUdTgaBWVVXx5J4EwUHI45AuO7PhbAh8PZgCHC4cy/2PRhtVWqxSB8NcJuz8NnD+VHkZLaFc+fzeYArQTi0OEEJCsHv37uodEAuBr5+SvAZQySolJDz5Zl0ygHbJAtCOVUqI3hTTctonC0ArFyvpyCOZ1oDERxCjYSmtkgWg3LXKwcJVy5Yt2UpJbJ2L5ZmMKpIFoLWLc7QGDRq4MFQjBoLOxfJMRq0DAThaWiPXKmjhwoVeJBtOuBES9fwfnYvldxkcBd+HAHzPxUpCDACi2JJTTxMSBQiKQufiwJXl33NWAAAEoKKigi2WRArCr9G2HAg08wSgsasVhWQTyddPExLVFMDWcww1aAIBOM7VikKyCd1cdYRkA6cyw97naDjHQgDKXK4shGs6ktGVGNa5uOAeTo8A3nrrLbZUQtJznNMCwB0AQrILwPEuf0JHVmuJQSAE+MQTT3RGAI52taKQe86R1VpiEKtXr/YubnUALxDoKBcrCVs1p556qhcRSEiUIHMyMjE7EGbeCAJQ38VKwv1/GP6bchkIcQdkR0K2aVyIajmHQQAOc62CkMp60KBBXoprQuIANwTh7gTL7wusX7usrOxG+UU9V4b9UGVkz504cSLz2JHYwAhg+/btXnrwVq1aeXcyIE2YZRxEVuBDtlcGAn2QOx+KjGE/bm9h5lpSCHB70tixY72As/nz54t58+ZZ1fYSLlRCnz59vDvqUAHnn38+nZ8UDLQ1tDlc4II2OGTIEKveH1OAm2yvBOzL1qlTx1PjYcOGeV9jq4aQQow+7733Xs/5N27cKGbPnm3FlecBTkwBksGFIFgAhCKbdCMwcQ8sAGINANuCWHC2MeAMI4Bfyz/rulIpS5Ys8RZnsBC4f/9+jgRIbD3/HXfcIR5++GExfvx4r81ZyFcYAVQJB1OCjR492pubwQiJGsuvBgvYiUXA/S5W0Jw5c7yV2REjRrC1ksiH/ogEdCDOZB/uBtznYiUhYyvmZtghMCkaEAEkunfKrVq1Krb1DPRkydd958rmzZu9G3OD90XCTNzMnG/mXJ33w23GhVj3wbXzWOhz4JDZfgjAl64qNVZlBw8ebNS8sW/fvto/h97G9AXNFi1aVH8dOCz2x3GNOAKyXArK6tixoytrS94UYJdwGJMyAiFYKReQ1gxrGjbStWtXMWnSJK8ndyUzE+rDkYxAuyEAVa46v2kZgbBXnCs42mwzGBXMmDGDazJmUeW0AJiUEQgLR/lcJ42e1Pbjp+g5MS2gCBjDXyEA213+hKZkBMI5hXzBEWcXuOqqq6yfDjiSEWgHBGCHq86PSjLhBlf03Fg5zpcePXo4M4dG8IytIMuUIzdPewKw1VUBQNomE25wHTp0aCT3E2ClHecdXABrAraepd+0aZMrC5pbIQBbXBUAzLmxFVhsevbsGdmzzjvvPGfqx1YBwNl/R+6b2Io4gL+46PyoHFRSsXcC8B5RBNoE5LOTkC8LFizwjlzXBHfllZeXewuVOuh+vyksX77cm1piZ8byYKC/OCsAiABEJb3zzjtFfY+BAwdGPqrBKnoxohsR1ZcqoCf4t+B0nM50Bz9jW5AQygFRj82aNbPdTT4KtgF3uiYADRs29Cop31DUfOnfv3/kz+zSpYuRZQ5HxjFsHTB6sBEsBFq+LYsI4KogI9B7rgmACTe4YsEu7N4/YunDgnBiUxvfsmXLRCmA/H+6ZzoMw/P5QAA2uVpJxUQnPdTSpUu9uPmwYGfBREopHVs+gV0GsClZAN4XJHJ09v7nzp0rVq5cGfr7o9xZILmtA1jOt0YA61ml0YLDO2EXwzD8x2oychiEBTsLJm5DWZ4nX2uKaTnrkgXgbbpstOgc3sHwP+hVdKYBUe8wFEMAkDfAVhBmbjHra44ADro2RCtWD4neQWePG8P/AJ1pQBw7DPl8ZiQ70d3b1/m8JoFQYKQEsxT4+gZ8UUf9w15pCJmrdEUAEK2F7MBomIWer+kc2gmG/wGYBowaNSrUz2IRCjsNhVp4g+B06tQp7ZREl5qf3SZatmwpnnrqKVvdY5Py+WoBAKtcEgBEawWNttBBMzqHdoLhf/LIBdOAsD0pdhoKJQAQnChXvp9//nkr2xamOQ0aNNBaszGMVcEXiVT/6MoUAGGrAwYMKOjvRY+cnB5LZ/ify7A4ilOGxZo/2+pAONqNnIAW7wSsTCUAK4RjIEkk8ukVcmVa57BOuiGwjmPYmi5s+vTpVjoQ1pUgurNmzbLZNV5LJQCvS/vGJQGAcyEzMC4JKRQ6h3VqDv9rTgPCYlu6MIx6TMrUrAPyGKBNWZzkFAuAb6QSAGTOcO4aHWTTRS85efLk2H8XDunozJFTDf9zmQbYlC4MJwrHjRtnZVvCtXOoX8vvA1grbXcqAQCvuCYA6E2h2pi3xT1U1jmkk20FXHd+bHq6MJzMnDZtmrU36UDcsat055132n4E+FvDzjo1/nOxtCtdEwGskk+cONE7qopTgnHk2EcPrJPzH5mKsq1NQCTCLiianC4Mvb6tl2cGPT+cH23IgfsNFmcSgJeEo6DiqqqqxIQJEzwRiHoYqns4B2KRyyUh6QjShZlwGAe9/dq1a71pDEYyNsfNY+qIdZ0xY8a4ctDppUwCgAzBkOkOLooAKvCiiy6K5dkmXEKKHYg4G2m6jEDJIP7CgYMy1dx1112eOfKZ4NvbMgkAmOeqAARrAlGDrSGdvf+4iDtdWLqMQC7jkphJ/lzzHxIpvul5QbQw5VAOb0MmWfhTGAFASpfdLKvwmHQox9R0YaTowKdfDiMAB6TNZ3mFI98rv6LG5HRhpKjAp/eHEYCUcwWSmiiu/IoaU9OFkaLyQqp/TCcAf5R2iGWWmaiu/IoapgsjNYAvP5fqP+qk+QGkacF52m4su8w9rU4OfIT+Io48F4YPHx76zH2QLszyiDUSHcuVT4cWAPAkBSAzuodwcDoxV6ds3ry5VtIN7ExQAIgibeaSRBYB4DQgDehhddJf5Zv9RvdsgEk7E6Tow/85uQgAbqpYxvJL38PqkO7ob1h0jwgH6cJIybNM+bK2AIDZLL9oethMR3/DoptAU+diEuIsGX04mwA8IW0fy/Db6Fz5FcXwP9dpgK3pwkhk7FM+nLMAfCHtaZZjfj1rvsP/XKcBtqYLI5HxtPLhtNSqrMyaCLiXtEUsS0Kso082302EeAgSCGxkWRJiFfDZrPk9wggAthEeZHkSYhXTRYht/ETIh80U/iEhQoj5HFA+K6ISAGQKepzlSogVwFe3RSkAYCrLlRAr+H3Yb9QRAFwc8grLlhCjeVFoXPOX0Hz4FJYvIUZzu8436woA4lnXs4wJMZJ1Ik3ij6gE4BBHAYQYyxSheYI3kcMvweGC91jWhBjF+9Ie0/2hXAQANwhPZHkTYhQTRQ63eydy/GW4HP1dljkhRoAR+SO5/GCuAgClGc9yJ8QIfptL75+PAABEG61m2RNSVFaLPKJ08xGAv0kby/InpKj8WvliwQUA4AKReawDQooCcv2/kM8DEhG8xHW5zj8IITmDE3+/yvchUQjAWmn3sj4IKSg4nLcp34eESQkWhqOFn4GkjPVCSOzskNZG2pcmjABAlbRxrBdCCsK4KJw/SgEAM6QtYd0QEisLla8J0wQAhxBGCaYOIyQu9kr7uYjwyr5ExC+Io8KTWU+ExMIEEXEIflSLgMnUE372oA6sL0IiA1l+cBttpFvuiRheFFOAS6V9zTojJBLg9D8TMcTbJGJ64TcEjwwTEhXwpZVxPDgR40tPkracdUdIXuAyyJvjenicAoDhynBpu1iHhOTELuVD39goAAArlr9gPRKSE/8sIgj3LaYAgEelPcS6JESLh0WOWX5MEwDwS2lvsk4JCcXqQo2cCyUAe6QNlvZX1i0hGYGPXKh8xhkBAEhbfInII3sJIY7zN+Uj7xfqF9YuKyvoCV4sCtaS1pt1Tch3QKjvA4X8hYUWALBYWidpbVnfhFQzVxRhxyxRhA+Kk0w/FgwSIiRgufKJQ6UgAAALHAOkfcy6JyUOfOAfRIEW/UwRAIC0Rj+StpNtgJQoO5UPbCvWCySKXABrhL/lwSQipNQ4oNr+mmK+RMKAglggbYS0g2wTpEQ4qNr8gmK/SMKQAsHVRpGmOiLEUA6ptv64CS9TjG3AdCDjCaKgzmcbIQ5zjbRppryMSQIAlqu50dlsJ8RBrpd2u0kvZJoAgKV4L2m92F6IQ/ybMkEByM5CNVfqw3ZDHGC8tJtMfDFTBQC8JG2/tH5sP8TyYf/Npr6cyQIQTAe2C39hsBbbErEInOxDRp87TX7JhAUFeZ+0fxIMFiL28LVqs/eZ/qIJSwp0tvBDJqvYtojhIJHn36k2KygA0fG/0npI+5BtjBjKVuHvXr1oywsnLCvgddLOlPYa2xoxDOS87CL8gDZBAYhXZbE9+CzbHDEEJPM4S1h4vD1haYF/Jfwko7gyiecHSLE4pNrgIGm7bfwACYsLH9ssv5E2xNbCJ1aDNjdUtUFrE90mHKiIp9Xcay3bJCkQa1Wbe8r2D5JwpEI2SDtD8AYiEj+PqLa2wYUPk3CoYpBTbaTwkysyXoBEDfb3f6JsjysfKuFgRSHRQkfhnyUgJApwTP37ogB39VEAouEjaX2FfxDja7ZfkiO4lhsn+RCAtsnFD5hwuPKwMnuLtG7CsuAMYgRvqrn+75QQCAqAnayU1lXaOGl72a5JFvaqttJFtR2nSZRIpULBp0g7TfjJRghJxULVRqa43OuXogAE4HJS5Bv8mbTP2N6J4jPVJs5WbaRkSJRgZSN880Fp5cJP0Mg8A6XLAdUGylWbKLmw8kQJVz5iBcZIay/tGfpCyfGsqvsxooTjRhJsB96QD1c0Ie3YahaH86xWdT2o1Ib7FIDMzJPWWdrFbBjOCv0lqo7nsTgoAKlA7MBj0iqlXSbtfRaJ9Xwg7XJVp7OFxSf3KACFA1tAM6S1Ff75gvUsEutYo+quQtoDokS29SgA0QsBThh2kHaBtGUsEuOZL+084Z8HeYiOTwGIamrw38KPCe+qhpI8Y2AOqItZ0jpJO0fanwUzRYWiVmVlJUshNxqrISYCSNqwOIrCu2p4P1PaNhYHBaAoZSitt7SfCj892WEskljBdXFPKcdfxJ6eAmASx0obJvxccT2Ff8sxyZ+D0pZI+4O0J6R9wSKhAJhOEzUigCD8UHC9RResu7ysHP5J4aeDJxQAKzlJ2kBpA4R/p0F9FklK9gn/RN4fhb/o+gmLhALgGkcoEThHWbsSLw/EWLyoDM6/h02EAlBKnCCtuzJce4ZEFHUd/azYrsO1bq8IP6YCtp1NgAJA/p/Dpf1A+KnMsK99uvCj2WxbUMTC3Ubhp9ZCSrZXpb0umJWJAkByEoVThH98FRXWUtrJypoW+d22CP/GZhji7t9Ww/q36ezmU4dFYAV7VS+6Ko04BIKA4KTjpZVJO66GIT6hkfB3I46qMaLAvHu/+hpn4w+pv39ew3YIP3vOtiSHp5NbzP8JMADEcNFaDJvioAAAAABJRU5ErkJggg==;" parent="1" vertex="1">
          <mxGeometry x="530" y="131" width="100" height="100" as="geometry" />
        </mxCell>
        <mxCell id="t371tnkArtYXUVjtmktd-25" value="&lt;font color=&quot;#0a74ff&quot; style=&quot;font-size: 21px;&quot;&gt;&lt;b&gt;Administrative web server&lt;/b&gt;&lt;/font&gt;" style="text;html=1;strokeColor=none;fillColor=none;align=center;verticalAlign=middle;whiteSpace=wrap;rounded=0;" parent="1" vertex="1">
          <mxGeometry x="260" y="80" width="130" height="30" as="geometry" />
        </mxCell>
        <mxCell id="t371tnkArtYXUVjtmktd-26" value="&lt;font color=&quot;#0a74ff&quot; style=&quot;font-size: 21px;&quot;&gt;&lt;b&gt;Gateway&lt;/b&gt;&lt;/font&gt;" style="text;html=1;strokeColor=none;fillColor=none;align=center;verticalAlign=middle;whiteSpace=wrap;rounded=0;" parent="1" vertex="1">
          <mxGeometry y="390" width="130" height="30" as="geometry" />
        </mxCell>
        <mxCell id="t371tnkArtYXUVjtmktd-29" value="&lt;p style=&quot;line-height: 241%;&quot;&gt;&lt;font style=&quot;font-size: 21px;&quot;&gt;&lt;b style=&quot;font-size: 38px;&quot;&gt;&lt;font style=&quot;font-size: 38px;&quot; color=&quot;#f6ad2b&quot;&gt;E&lt;br&gt;T&lt;br&gt;S&lt;br&gt;U&lt;/font&gt;&lt;br&gt;&lt;/b&gt;&lt;/font&gt;&lt;/p&gt;" style="text;html=1;strokeColor=none;fillColor=none;align=center;verticalAlign=middle;whiteSpace=wrap;rounded=0;" parent="1" vertex="1">
          <mxGeometry x="660" y="250" width="70" height="240" as="geometry" />
        </mxCell>
        <mxCell id="t371tnkArtYXUVjtmktd-30" value="&lt;font color=&quot;#0a74ff&quot; style=&quot;font-size: 21px;&quot;&gt;&lt;b&gt;LDAP REST API&lt;/b&gt;&lt;/font&gt;" style="text;html=1;strokeColor=none;fillColor=none;align=center;verticalAlign=middle;whiteSpace=wrap;rounded=0;" parent="1" vertex="1">
          <mxGeometry x="515" y="90" width="130" height="30" as="geometry" />
        </mxCell>
        <mxCell id="t371tnkArtYXUVjtmktd-32" value="&lt;font color=&quot;#0a74ff&quot; style=&quot;font-size: 21px;&quot;&gt;&lt;b&gt;LDAP Server&lt;/b&gt;&lt;/font&gt;" style="text;html=1;strokeColor=none;fillColor=none;align=center;verticalAlign=middle;whiteSpace=wrap;rounded=0;" parent="1" vertex="1">
          <mxGeometry x="515" y="550" width="130" height="30" as="geometry" />
        </mxCell>
        <mxCell id="t371tnkArtYXUVjtmktd-37" style="edgeStyle=orthogonalEdgeStyle;rounded=0;orthogonalLoop=1;jettySize=auto;html=1;exitX=0.5;exitY=0;exitDx=0;exitDy=0;exitPerimeter=0;endArrow=classic;endFill=1;startArrow=classic;startFill=1;strokeWidth=3;strokeColor=#FF3333;" parent="1" source="t371tnkArtYXUVjtmktd-33" target="t371tnkArtYXUVjtmktd-3" edge="1">
          <mxGeometry relative="1" as="geometry">
            <Array as="points">
              <mxPoint x="580" y="270" />
              <mxPoint x="580" y="270" />
            </Array>
          </mxGeometry>
        </mxCell>
        <mxCell id="t371tnkArtYXUVjtmktd-43" value="" style="outlineConnect=0;dashed=0;verticalLabelPosition=bottom;verticalAlign=top;align=center;html=1;shape=mxgraph.aws3.http_notification;fillColor=#19B2FF;gradientColor=none;" parent="1" vertex="1">
          <mxGeometry x="400" y="110" width="75" height="52" as="geometry" />
        </mxCell>
        <mxCell id="RBwo3LP9QpBpMymfKp9m-1" value="" style="edgeStyle=orthogonalEdgeStyle;rounded=0;orthogonalLoop=1;jettySize=auto;html=1;exitX=1;exitY=0.5;exitDx=0;exitDy=0;exitPerimeter=0;strokeColor=#19B2FF;strokeWidth=3;entryX=0.04;entryY=0.5;entryDx=0;entryDy=0;entryPerimeter=0;endArrow=none;endFill=0;" edge="1" parent="1" source="t371tnkArtYXUVjtmktd-9" target="t371tnkArtYXUVjtmktd-14">
          <mxGeometry relative="1" as="geometry">
            <mxPoint x="150" y="316" as="sourcePoint" />
            <mxPoint x="487" y="186" as="targetPoint" />
          </mxGeometry>
        </mxCell>
        <mxCell id="RBwo3LP9QpBpMymfKp9m-12" style="edgeStyle=orthogonalEdgeStyle;rounded=0;orthogonalLoop=1;jettySize=auto;html=1;exitX=0.88;exitY=0.92;exitDx=0;exitDy=0;exitPerimeter=0;strokeWidth=3;strokeColor=#B3B3B3;dashed=1;dashPattern=8 8;startArrow=classic;startFill=1;" edge="1" parent="1" source="t371tnkArtYXUVjtmktd-14" target="t371tnkArtYXUVjtmktd-18">
          <mxGeometry relative="1" as="geometry">
            <Array as="points">
              <mxPoint x="352" y="450" />
              <mxPoint x="-90" y="450" />
              <mxPoint x="-90" y="320" />
            </Array>
          </mxGeometry>
        </mxCell>
        <mxCell id="t371tnkArtYXUVjtmktd-14" value="" style="shape=mxgraph.cisco.servers.fileserver;sketch=0;html=1;pointerEvents=1;dashed=0;fillColor=#1A1A1A;strokeColor=#ffffff;strokeWidth=2;verticalLabelPosition=bottom;verticalAlign=top;align=center;outlineConnect=0;" parent="1" vertex="1">
          <mxGeometry x="290" y="120" width="70" height="133" as="geometry" />
        </mxCell>
        <mxCell id="RBwo3LP9QpBpMymfKp9m-2" value="&lt;font style=&quot;font-size: 15px;&quot;&gt;&lt;span style=&quot;&quot;&gt;The Firewall exposes port 443 of administrative site for web traffic&lt;/span&gt;&lt;br&gt;&lt;br&gt;&lt;font style=&quot;font-size: 15px;&quot;&gt;The LDAP REST API and OpenLDAP servers are not exposed outside the intranet&lt;/font&gt;&lt;br&gt;&lt;/font&gt;" style="text;html=1;strokeColor=none;fillColor=none;align=center;verticalAlign=middle;whiteSpace=wrap;rounded=0;" vertex="1" parent="1">
          <mxGeometry x="-169" y="-40" width="256" height="105" as="geometry" />
        </mxCell>
        <mxCell id="t371tnkArtYXUVjtmktd-16" value="" style="shape=image;verticalLabelPosition=bottom;labelBackgroundColor=default;verticalAlign=top;aspect=fixed;imageAspect=0;image=data:image/png,iVBORw0KGgoAAAANSUhEUgAAAP4AAADGCAMAAADFYc2jAAAAflBMVEUAAAD///9BQUHFxcU9PT37+/sJCQnf39+ZmZkbGxsYGBiqqqrv7+/V1dWgoKCWlpbn5+e1tbWIiIj09PTo6Ojh4eHZ2dloaGhJSUnNzc1/f3+jo6NjY2NPT0/AwMB5eXlbW1s0NDQnJyclJSVWVla5ubk1NTV7e3uNjY1xcXHAomxAAAAJAElEQVR4nO1d2WLiMAxMyk0g4S7QQqHQg///wSWnZUmGbLFJGzRPu7En0TS+QYPnA8zHk+fNU41x/Jpsp1Cxp/4Z7L2HwD5g5I+rjuqeGCP502XVEd0XyymU36k6nPujo+Q/oPpMfyx/UHUk1WCQyX+qOpBq8JTK71YdR1UIY/nTqqOoDtOz/KjqIKpDdJZfdQxVwveGVYdQJYbeww58Mbrec9UhVImT98u3eYfucDQaTvjCZdCZzRuGF/i6nc/m483Fu++9/o3xuUW+N20xf4DeKiucvdLCzTwrHF56v79bfC/XcMYWFy5bqvAbF67BkQbzx/kb6MCDGXQg8d6ChW964Q6W+Z/3i9gmXjQR6C0O9cK2Vqj9afzZPYO2B12gv4BlG1QYwMIIFf7J2e0ZifAPoDBAZdobXqDCjztHbgVdLP8ICoe4EDJx2fzOkVvBGKuA49sIF8I5DJe17h26DYRYxQ4U4vZ98e2P7hq3JbxhFXABg5uGdmA3R4WNO0duB5fe4Ssq1EY3NGP6X/eN2xI+LolAnb8Jy/p62R89z+prq5eFXnjUFAZ6oT7x/8lp39PXNoM2KvwGhSvM3ILC8E7R2kdzkGtgDqVOpncfQ00ba/dhusN6ce4Bgy27a2tHnanfmo3Zzyk+g1HLb83Dntv4nKN9wM0eonex0HYsAoFAIBAIaoLmg4D/4KPnPwjIBilB/zqxHuAPf0T+Y0Dki3yRL/JFvsgX+SJfR6cm+KF8ttIfREvki3yRL/JFvsjnIPJFvsgX+SJf5NcDIl/ki3yRL/JFPltN5It8kS/yRb7IJ9g2FFZF3mQU5CjyLAOAUKd5F2hjQHvxQniXgqaunvLAdZo7+StYXnjcqUt5suwnrLcoTdvDekM9Tzd3oTjAG6downr0S3v25MPsKT/3k4BeAVlqiZZ8Hep5ZXlqEcxE8xhaV89hfmPqcDTqwmRP/hKW580M5tru0kvQO8I/6rSQoWWZShOdtuFogVaFvhSY5m1bvpZXmjcz2EazILUs0vbPaCjw3LsDfl4d8TR38mHMeY+FnCzdDmYRdsrTGoi2QP8/ow1pK0pDuZ6W5XdpBa2JtuhfKR6zQ0rTOkR2bYFo8LVmd9ZMSbJrsEHQgd+mfC1zNjWT0HpeNq5DL9xnHHSPoW2u096TKnpSf5rAOEA0d/K1Jps+SpvVsu5Iwr5G+ya0No5ol1TRbQsmhMaEbFM+fPw3c/ekO8JpP/UUge1zYqK9gwtpsj70IVgTqdl4CGmcS4dN+bA7JkZCTzop6Y6w0aa+AgGmNRnaK66k0ZJ1H/KrGfA0d/LhEiMZryeIFWeKQNuJNaGtOFpsP7AmtBO4kgSNHXk+0a3emJCtbnlAhcQVYYtYcdOG41Nqq3C4RlsjWppvA9t18qZXiPaFaFzSslX5c1RjgFhxdwSuE7lxxAjRpgwN/ElyJ5KZutTipMSNHUz7rD2VVfnQMuUJ7VLywME7ajC0pYEGVgv5Gg/adzyRESPVu6A0d/JRvybuMvFqALSIb4Z23qh+EdqepcF6r3ixQJ/G2hpalQ97cchYK8WjD2jZ+T51r9OQKYuf/E3A/5YMLdKXtymeNRprTWf3tGem3YeYR527I4y5oIF3tNVuUtDAOKesZqawBhkx4umwz9HcyQcvbg7aQiFvBCdn5TgCxrUOUApoYLWgzizA+154eyVU3YuluZMPZ2c1ny/UCgXO1so0BszOLZbWvkYbqEcPwdNAPLzprl35cPRVy7JQrb12YG2iHFfg6rBf0LpqPXQEtB3/tKLhRYq2ATTeltXySS/ogMdi0lmqEeglYO8BolgWW4CmooVjlgYCOhQjRlPFGqnOaPClsywfdMdJfusBmH6Hqpt3bqeBNUTRzKdgD7VS92WOOhzIB5NvEfsHOAmZqkEe2imBRtoBtGLJOihPG4Ot13TG0tzJX+Lb+cmsbbhcAJuLxnj+MY27bDDktf0pD7lfahXJXNZoTMDxZTqX666z5WkGkybb8vG2K5ve6ZJM34EQd9Gf0lY8zWRJaVs+sVBNl+hrclnfgRDvTRPt4wotWdnjAwPz70rZlr/D90s39dT8Yn2Flmzq36/QsC1l1sj35DJ31OFCPumOWWsl6//3y7SRgda7TMvO88i2wWTFbl0+donNZhzsnIx/7ggnFBpoeOOCfVezo3y81zQ6clqXj51Qd+ll3EzxDgTrPPI0HB2mZUtb7GHNHnU4kY+fbHgQ/rAV0aYGGjbbPxloKAjDLzi4+HaH4XZojiI/cleOhr0nD3rxtiTNoXx9tCpGav0Ymu5AdNobT6PP1U9TT2Vp7uSvg5eXlzAMu91uFHWLRdrnCnyLpUGX4BotKgb45n/R+jzNbEcrX20S+SJf5It8kc9WE/kiX+SLfJEv8usBkS/yRb7IF/kin60m8kW+yBf5Il/k1wMiX+T/t/xGPYCzhsSiXOSLfJEv8kW+yBf5Iv8xIPJFvsgX+SLfKH/xtu/3rKG/X+PEDIXRpGnvSfkD319pvld5+Wu22k3Azis5qM2cJTxhb5HS8k9srRtB7SecPSoD1V9KviEj9lZwzfHjOu3noFmypeS32Uo3g6bt5d5nrkCSTsvIH7J1LIC6fRgSz22BmMuUke+o7XOt39mjUhCznzLyzbkxN4J61jAWgzZBZrQy8k0JwTeD5n87HfmYVP8y8ln7Kxugaf442dUyyFqj1Mi/cxMMdbky2i5YApn4S8k3uQHYDsZlS4tB3QbKrfqcTH04+dvho1JQd4Sya/45ScK9FTvu3SdNzVH7P1BLtf/Y8HaCqGsN0ZiueBRmY3tPyh8YUN+P/5JfT4h8kS/yRX77keX3PeWt075OrAeUx8veA47upjVJ3aD28icP+FvS1XE9oRp814PLbboVryO+lOCFp315Mxq16o4V+OmWtu/hTxja9YamNTrLN1p91R/Ts3yDue8DIPRj+dkvCDwcYuPkWL7Ts6bfi0Em3/XHLL8TiXliaiLXuV67bki/apB56E15d+/aYpPZ/BYWgs4+1fmFaBcHoMBBMbB+sPs7sYcO8nA1PG18P2+eaozjadLQ3K3/AXsCt5lipPelAAAAAElFTkSuQmCC;" parent="1" vertex="1">
          <mxGeometry x="260" y="210" width="74.4" height="58" as="geometry" />
        </mxCell>
        <mxCell id="t371tnkArtYXUVjtmktd-24" value="" style="shape=image;verticalLabelPosition=bottom;labelBackgroundColor=default;verticalAlign=top;aspect=fixed;imageAspect=0;image=data:image/png,iVBORw0KGgoAAAANSUhEUgAAALQAAAC0CAMAAAAKE/YAAAABs1BMVEX///8AAABmzDNduiuZFzv7+/sEBAR+fn7XpLLx8fEsLCyWEjfy4eYeHh6cHkGZFzrpzNSrq6vNjqDr6+s8PDzaqrfjv8n19fVmyDMQEBChoaEzMzOaTWL58vTftsIWFhYmJiatRGG4XndqhT1rcUBetixjrC9pkTu1tbV0dHTPz89iYmJmwzRNsyZetyzf39/BwcFOTk5rdz+Tk5NERERWVlbCdoxrfT5ooDlqgz1oqzeJiYlonzlpmDpqizzV1dVsYkJsWUNtVkSkdIGhg4yzU26jLU2jslz39Jjg7d7DycJVqycLGAVDhx7i3JBraEFkSlLC3LxleV1ESkGZxoy32a7Y6dWiuJVTckhQdj5PfzqQyH9svE0ylBdnuT4mhw9edG9CWk9hnFp+iWB+rXh9l4Upeh56TaIzKTy1vaingsstGj7Nv9qAwWnk3OtCmC1iplSYnoE7Yyc1UiYoMCMqPSR2wlqkwIzm4M/C13eKsUy3v33a0aXf2Lqyxqb8+5iVsFWqpmTXz46KnWw1YBkXLwrT034dPA0mTRE4cRoOHQaarZV/plGgyWCup42Bk0maj4DSvOccAAAOKklEQVR4nO2b+1saVxrHcS4oRkBFZcQQMTCD4jCiGIFR0KaNoFRsNmq6G0N3c+ludps1aXezKaaNTVqapEm3f/K+75nbGdSUeHmY59n5/qB4GOQz77y3c+aMx+PKlStXrly5cuXKlStXrly5cuXKlStXzlBocqbTCB+gcMoHP/np+SvhTqO0L402DL98nUZpW/zs/GwIfmdmU51GaVv82h9u3Nja3uFT2U6jtKvwzUJcqd+QGEb+fKDTMO2Jv5nLFfIM88fPAfrGn27xnQZqQ2uFOYAWGUadB1PnRWbX+eljR1bncoW4zDCCJDBC9fbt9BOn2zpUZ+Qcga5+8cXtdHrjz3+5c3ur01TvF38XXCIO0Ar7xb2b9298eeevf1u+WXW2gzxIQAQuAXSd3ZgJ//0f978c+Mq3U33oZAcJJxJxhmGKpZLM3L7p++dXy3t7924+EhgnO8h6IpETIARlWRDYvXs7MzfTDMvCSL3TZO/R40RiTgVTC2w6nWbT1Wqa0cQ61z/4uwCdywsMMqfTAuIKSnVPYXY7jXa8+LnEHFSWpKxBEzNLX3/9TV643mm047UjYTXM5YoCYa6yAC1/869/Vx1s6OsiK8iKmiwlBc3UVXQQeU8RbnUa7ViFVEGLO1nQIlEWMBrBtcW1TrMdq8eJupEsMAAFNLOAJ5De7jTasfJtbsZZljlCDm6Y1jc3E2q6FRgMXnfwJHF9M5FICmlBEU1imQVJznVoj2cGoEtyHBKeYWREZp842M7QLEE5LC1Bno7XSQQS5Oq2c/0Z5QNLx/M4a1mCXgOkKGzVya6B+gWgVaGYS9bRMxRRklR1ydndP2mWkpCU64ygRyCYWtnpNNb7Fd5MlIQ0S6UNlIMbJRRYGlppcUOVGc2lif7z9OnTTpO9TzAByCULuYIklxXNOUSx+m2lUgt1muw92smRZrqQbFTK+YaKcajm95+9eOboYNzKAXMJYCug/apYFUXxFu/sPO0J3wHoPOS7xkG53NB82sFNqaY1cS+ZJ5MVrCu6tnxPv3NyKH5fFARWMJsOTWqt8rzmYK9+PGdvlXToZ8+cbOnHc7miLMhSXT1QFDUvERWdTAx6gAmvBPqhUi7XakuQPESF3XV2KK4tQWmJl0rJt7VKpXkg6g6yG+ZD3znXRbbrcYAuCozUWJIst377ovL8+YtOwx2rbSUZL6lWm6fn6m8hGB08f3lY3diokuUwmRVVSdRU0u808zOZSHYxG8k46s4znxe0zpQRlPx+ZV+SsJRL1UfYM4WyY94uTaNDEedYns+V8rKs5otquQmx2DA95A7vGYh1UfL2TnYa1tTLeCmZTBaLxR+azYZI+fUvU5qVveP+cf1Vt1Pq5DpmvGIxX5cVGpllXyGpd2gxszyznFkcIn9NOYSafwmWXpLNBgTnAVWoiz8iZSxiTAdCEfQV76JD2tbwS/AOEZcdkVpEYMghG8g8v0wdlxrDeMx0jNMu/mUSkh6rpWrpQCX2/gkIf1q3HbeMtp53Sg65Jckk7YnNg4NmhSQQNLRXumd3hkkcbEkhfPgoh+HDxzj/0YefQPyu3p4qmPTKpJr/DEZ9xVbtpuZnYVTbKrQ8OZnhPaGB6fmh2e6MnTA0MDU7ND+dTZnDfGYS90WRN2anJs9i2szXjSVTtdFQyQSm+ikaGpK1HQdNPU5qYzek7VBmSEuFo1eorTjhiFGQxqeNkPD1er3d/KR+uHfoDALDtLS1+rEB//sN9iB2U4fRqwc06K7ejB8JCEjMxPBNGzW0Cw8xoLu6uiPj5vjoGZSpJ9Z6ug79I3oHdlAtXn0Fxqd06HE4A//UQGQaYWK6UcPTpHZOL3bP4rA/ZULP+ru8/vnp2RhJpaf37FutllbQpV/jK8neKGUxf4Q1aHxJ3s2Mma5ODhhdJE6bwggY8hnQMD6Fh8+QQrvsOa22W6FFTHgbWjG3HYlOPRYyoIf0iErFjCseAo/xRvSDQ0DtzZrQoxHNvDxejMVTQ69Z0Pq6+hv4uj3y8pEtL2cAOmZAj5rhl4XhaURa7NJfaCcDHjIWNqDNHYrLcPSVU0Nb6UN3apI8qtpL24VMwff5Z3Ro64tnwNQxGA4PweesD/AQAt6UDu0196D54HLMnxqacupD0Hb/oKFNN9DosMDPgGmHqCyJHp7VocfNkwlDDIydHnpNsDs1gdbcw54/aPcYpZJzt+a96PJXeEsZ9BYdOmaWFH7oTKA9u3anpgKRfUTXLzoQ/VRiicB4N/xCT/dbwqw3r0P3njn0dbt/WCmPZVU66eH1ntVTXi8VogNekr+zXYc1pEOPnTk0FYr24sKydboo0sXlCOjFI6DHzg2aMrVMl/GWSh7202Wc8hvdPdDS0wN2Zc4P2irlghGJulPTlp40kkerTy9qaQJ9uvuIf35e0FYC0SaI8PU/4w06RV1fTqVSBJCfN2tHS/aY1kpi5piycV7Qni2bqfew339NFlHf1kAvsEqjE+jzLXueDg1phsc87ae8JtWdJc8XnBs0/8QytSJKmD8+JQ6ivMMbMr+CHcetYowVcdbM4JOjWlIJ46WwzgVaPu/o4nlCe9ZwziUoAuXVbwi19CCTmZzhJ/1Wr6n1HkZX7Js17I5O3Wv6emZUd6JzhJZUqZhYmSsWi6o+S+wa/RGKufIA1/S6R7solyBdXkw7g/CUUXI8IeyMZnXq5TGjQTlH6JWPUCsrK5slqSGyr8kU5M2r1xv3J7PTZIXMmzU8QuunY5GZUChzBV1db4cwv3SN4fBMpNe8MucHHf7oKmHe3NxMHtQOJCn3qVYevF59BuWPmF6MgYi9s3+sl1wBcxEnS1ai/GNjfnKltCtzftCe365qdt5MJNVapVmr7P9Mzfdg+kp1qZjyIvPG2/6s1dpF/NZHYrr9zxE6nCsmcsl8PDFXZ/PNZq3ZYPdevSFm9o72TmXodg8tnQl1++EqeP3Ttudilqdiozg8GpsyQjI8H4vNWtBXenunzwrap++PFaERkUVJwvVIWdnbeP369f3lloUlAo2PeWWzh5/0CqUGstmBFJWwfT4f1WaHfb4zWxK8zpibP2w3Q0EvM5mMDVuH7ryuK3VGTqflI6DfaeXFkmOg1xIJsvv7MHR1Xy/kphwD/etmIp5XpXpdFgQNGrdiofLroZnQJxcv9pnHfgLZox9fDF809HFP3xH/NArv9LeMjVy8uKBrcCR6Omjcs457qQv5ZDKJN0IV0RDURM/HQc76dhN6kLMUWDiMPQzjCy1h10N9hlsdPg0zX9C22ZA7uD9UGrR/4JT8Y+5o6ODqBGp1NchxE63U/GUuwK22jAK09pmJiQCc6sgpmB+KRWLnuLqUTP63UpZE8x6M8uAo6BENmhuOEvUPrnLBay1Xu2+VgyN6DkH3RPUPXYYzPTn0NgSgWioUCiVWWCoW9yvNpnmDjkxubdDDn332meEel4zB/lUu0MI3yAX6JriWU+mhTgPe5Y6KhXYUfqBljnwxj82pLEtlqIllHZrsAB++ELSgebCSpxXacynATdj4ote4CR7A7aHYEwxa59bDBS95PkCkMvGQGHzrdxNzSYaWwEpaTQRpO8CHL3CtaaAVGhjtx/QHuAXywxaKtKU9I4e8532a+Q37o9/uQleXyEEIFhQamrq9r++mbgMacQapNzUj8xNBe4CCcS3OS1yw7fzB/6p1opuEWSLPukg2aEzSuGdF+lbbj9AOdD/HXabejAIurwXrcdD8AnfUvz1aj69iI1qSisCcWGKKuVw8XrI2rDOsXlckqfruee1pm9B9Ae4a5QkjmuFh9DLt6pR78JdWudV2bwOvAzP0znWmCMw5mVFKmJ6XZO0BDHsZf/uC7OO0BeIx0NEAMa1BtMCtko9cs4diT5BbGEFd6rkcsDvU+8SvfBQH5hWVwY2bGIJysYD39ZeWVGvxQ9cW/wx32bRj6agtfUCS1uze4upYEQNEWBJbU/uxWr+alzfBn/MMlkGyzU0q7sGUdmlJaglD3JscqtX4tizdZ7P0cIDrIUu+fatBOhWCpXXowOrEYNvNx+MVgUCrDFZBfW9eHZjzeaW1x6uDy4VC7QeiCR2FanftMhFUHXuOWRgmutT/Af1STmGEBHhzEaELxoZCFZjVRkOwMYvGJvB2LD3MBRfMP8A7wKRcUPtBpWpbcWlbPEZbgUDnodmIG1lDkVSl2bRt+6iaG9fbsDTmLyu59ZiGRlNTXVPPB9UT85/jrCqfSMQFRsSsUbTqitysqaSTxsVHtrplpaM2oMG2AZMtei1ogS4EObpynwiaOG4c2w2hiNDWPRemUWlWRZKkVVWiH2r4fWge0Kza0h8IWn+MBKgscTJobTVaIMv/crKUlKmeQyxXypqDgKHptP+70NFBW+tsq4NQG62++YTQ2j1agTzBIOdVRi43yACmOqlZKeubId89o8obBGLPiCGTDdAGSZ0YXpjgglRnGp2wNf+DQStEe4Ingg6TpYKD2oGOelA5MFKzoqj7TbK7Rnxbe/6MhjaSK8isFTBz0YcgVQQGrZMEh7hMnXI/FYontDRZQpcqzbqWk5VyRWXNqayq5qVqtb61xj+lN38PX6BkWm3QHOJWF/rpEn7B1iVFr10wSXsuXDgRNC6hNyoHxi24pgFNuKv573fW8PvDtYq1RBPtoxQ9PBq11wkYsTXRUetD1MsPU/gJQDeMm53NilRNm+Xkobl/+umzM1u/OhPx2weQJtLaHXDIGGs7Ww936/Xdh9uO3vLte1HZXwtfv/XkycPvaxVcLsTmptNUvyef9mQIgvq+c8iGTFeuXLly5cqVK1euXLly5cqVK1euXLly5cqVK1euXLly5er/Rv8D4sFJA0UvfG0AAAAASUVORK5CYII=;" parent="1" vertex="1">
          <mxGeometry x="515" y="460" width="90" height="90" as="geometry" />
        </mxCell>
        <mxCell id="RBwo3LP9QpBpMymfKp9m-13" value="" style="shape=image;verticalLabelPosition=bottom;labelBackgroundColor=default;verticalAlign=top;aspect=fixed;imageAspect=0;image=data:image/png,iVBORw0KGgoAAAANSUhEUgAAAgAAAAIACAYAAAD0eNT6AAAABHNCSVQICAgIfAhkiAAAAAlwSFlzAAAPIgAADyIB+qfDbQAAABl0RVh0U29mdHdhcmUAd3d3Lmlua3NjYXBlLm9yZ5vuPBoAACAASURBVHic7d15uB1Vne7xb8IQQpg0oHCRSUGwhUJAZKZ1OQAiIK5GxIGWSdEWEBRocGgaGWQQEFBpEVAcUUsbkBlLLspgA9Iu8IqABpKmoYW0TEkIw8n9oypkJzlD7b1r719VrffzPOdJuDdnn7eR7Pe3V1WtNWnBggWISL0F71YAphdfq3f8vvNrGjAFWL74tczvAeYDzxe/lvn9HGD2KF9PLPx9kmbPDeLfg4hUZ5IGABE7wbvlgHWADYD1O35dk8XLfUWbhD2by+LDwWPAQ8CMjl9nJWn2glE+kehpABAZoODdZPKCX5+lS34DYG1gsk06cyPAIyw+FHT+OitJsxGjbCKtpwFApCLBu9WAzYDNgaT42ozmfXqvi7nAPUAovn4P3JOk2ZOmqURaQgOASJeKT/UbsXjRbw6sa5krIjPJh4HOweABrRaIdEcDgMgEgndrAzsA2wPbkX+qn2oaSpY0j3y14DbgVuCWJM0esY0kUm8aAEQ6BO+WIS/4HVhU+uuZhpJePUwxDBRf9yRp9pJtJJH60AAgUQverQJsS170OwDbACubhpJBeQb4LfkwcCtwe5JmT9tGErGjAUCiUly/fwuwK7Ab8GbivQs/diPAncA1wLXAf+g+AomJBgBpveDdq4FdyAv/neTP1YssaTZwA/lAcF2SZv9jnEdkoDQASOsU1/G3Y9Gn/C2ASaahpGkWAHezaHXgNt0/IG2jAUBaobiWvyewF/AOYDXbRNIyTwI3ApcDV+jeAWkDDQDSWMG7acAewL7kn/SnjP8dIpWYT74ycBlwZZJmc4zziPREA4A0SvBuKrA7eenvjp7HF1vzgKvIh4GrkjSbZ5xHpDQNAFJ7xUl4u5KX/h7kp96J1M0c4EryYeBanYgodacBQGopeDeJ/Fr+/uTX9lexTSTSlaeBK4BLgRuTNNMbrdSOBgCpleDdWsCBwEHkp+WJNN0M4CLg4iTNHrUOI7KQBgAxVzy2tytwCPl1/WVtE4kMxIvk9wtcSH6JQI8ViikNAGImeLcu+Sf9A4HXGMcRGab/Ai4GLkrSbKZ1GImTBgAZquDdsuQ38h1CvjuftuGVmI0A15GvClyZpNmLxnkkIhoAZCiCd68EDgU+BaxlHEekjh4FzgcuSNLsf63DSPtpAJCBCt69FjgSOAA9vidSxhzgEuDsJM3+Yh1G2ksDgAxE8G5b4LPA3miZX6QXI8DPgTOTNLvdOoy0jwYAqUxx1O5ewGeAHYzjiLTJLcBXgMt1ZLFURQOA9K3YnvejwFHAhrZpRFrtQeAs4Nvadlj6pQFAeha8Wwk4nLz4pxvHEYnJbPJB4NwkzZ61DiPNpAFAulZ84v8kcCywhnEckZg9DpwGfF0rAtItDQBSWvBuCvAx4Dj0KJ9InTwKnAp8M0mz+dZhpBk0AMiEgnfLkT/G93lgHeM4IjK2WcBJwCVJmr1gHUbqTQOAjKnYo/8jwBfRwTwiTTIDOBH4rs4ckLFoAJClFEfxfgA4AXi9bRoR6cP95H+Pf6QjiWVJGgBkMcG7HYCvAltZZxGRytwFHJGk2S3WQaQ+NAAIAMG7dcjvJt7POouIDMwPgWOTNJtlHUTsaQCIXPFI39Hkj/StaBxHRAZvLvmwf4YeHYybBoCIBe/2BU4H1rXOIiJDNxM4Jkmzy6yDiA0NABEK3m1Jfp1/R+ssImLuN+T3B/zOOogMlwaAiATvXgWcQv5Mv07oE5GFRsiPID4+SbO/WoeR4dAAEIHisb6PkV/3W9U4jojU11Pk9wN9U48Ntp8GgJYL3m0MXAjsZJ1FRBrj18AhSZr9yTqIDI4GgJYqtu89mnwXvynGcUSkeeaT7yZ4hrYVbicNAC0UvNsa+BaQWGcRkcYLwMFJmt1hHUSqpQGgRYJ304AvAYcDyxjHEZH2eAk4F/hCkmZzrMNINTQAtETw7l3ABejQHhEZnBnAoUmaXW8dRPqnAaDhgnevAM4B9rfOIiLRuBT4dJJmf7MOIr3TANBgwTtH/hdxbessIhKdR4D9kzTLrINIbzQANFDwbnngJOCzwCTjOCISrwXAmcDnkzR73jqMdEcDQMME7zYBfgBsYZ1FRKRwN/DBJM3usw4i5Wk72AYJ3h0K/A6Vv4jUyxbA74r3KGkIrQA0QPBuDeAiYA/rLCIiE7gSOChJs8etg8j4NADUXPBuV/JDOta0ziIiUtJjwAFJml1rHUTGpgGgpoJ3U4DTgcPQjX4i0jwLgPOAY5I0m28dRpamAaCGgnfrASmwlXUWEZE+3QX4JM0etg4ii9NNgDVT7Oh3Fyp/EWmHrYC7ivc2qRGtANRE8G4ScBz5Xv4azESkbUaALwCnJmmm4qkBDQA1ELxbFfgOsJd1FhGRAbsc+MckzZ6yDhI7DQDGgnebAj8DNrLOIiIyJA8A70vS7F7rIDHTUrOh4N0HgNtR+YtIXDYCbi/eA8WIVgAMBO+WBc4APm2dRUTE2DnA0UmavWgdJDYaAIYseDedfMl/Z+ssIiI1cTP5JYHZ1kFiogFgiIJ3GwLXABtaZxERqZkHgd2SNHvQOkgsdA/AkATvtgduQ+UvIjKaDYHbivdKGQINAEMQvNsH+CWwunUWEZEaWx34ZfGeKQOmAWDAgndHA5cBK1hnERFpgBWAy4r3Thkg3QMwIMG7ZYDzAZ2PLSLSmwuATyVp9pJ1kDbSADAAwbuVyD/1v9s6i4hIw10N7Juk2bPWQdpGA0DFgndrAVcBW1hnERFpibuB3ZM0e9Q6SJtoAKhQ8O4NwHXAOtZZRERaZhawS5Jmf7QO0ha6CbAiwbstyDezUPmLiFRvHeDm4r1WKqABoALBu+2AX6HH/EREBml14FfFe670SQNAn4J3DrgBWNU6i4hIBFYFbijee6UPGgD6ELx7D/kNf9Oss4iIRGQacFXxHiw90k2APQrevR/4HrCcdRaREuYBzxRfz3b8fgRYEZha/Nr5+6loAyuptxeADydp9mPrIE2kAaAHwbsDgG+hFRQZrkeB+4CHgKdZVOJLlvpS/++9bqQSvJvE4gPBwiFhVfKbspb8WhdYrZefJdKjEeDgJM0usQ7SNBoAuhS8Owz4KjDJOou00nzyU9HuK77+tPDXJM2etgxWVrER1ljDweuADezSSUstAI5I0uw86yBNogGgC8G744BTrHNIK/yVUUoeeKjt254G71YF3gRsSb5h1hbAJsCylrmkFY5P0uxU6xBNoQGgJJW/9OF+IAN+S1H6SZo9aRupXoJ3KwCbsWgg2AJIyC87iHRDQ0BJGgBKKJb9z7XOIY0xk7zwMyBL0uwR4zyNVByotTH5SsFOwDvR5QMp53BdDpiYBoAJFDf8XYSu+cvY/od8I6iFhf9n4zytFbx7Hfkg8E7AoRsOZXQLgIN0Y+D4NACMo3jU74fobn9Z3JPATSwq/D/YxolTsULwZhYNBNuhx3JlkRFgPz0iODYNAGMoNpj4GXpDEZgD/Ab4JXnp352k2YhtJFlS8fTBW1k0ELzBNJDUwQvA+5I0+4V1kDrSADCKYovJq9AmKDF7iXyL50uBf0/SbJ5xHulS8O61wAeBD5E/ZSBxeo78KOHMOkjdaABYQnHIxA1oe99Y3Ute+t/T2ePtEbzbEvgw8AFgLeM4MnxzgHcmaXabdZA60QDQoThm8lfoYJ/YPA78ALg0SbPfWYeRwQneTSa/efBDwPuAVWwTyRA9BbwtSbO7rYPUhQaAQvDuDcDN6EjfWMwHfgF8B7gmSbMXjfPIkBV7D+xBPgzsBixvm0iG4Alg5yTN/mgdpA40AADBu7XIN2lZxzqLDNzt5Ev8P0rS7G/WYaQegnevBPYBDgK2No4jgzUL2EaX+DQALLxz+GbynceknWYC3yVf4r/fOozUW/BuR+BI4L3oEeC2upt8JeBZ6yCWoh4AiueIrwDebZ1FBuLX5Ns3X5ekWbz/oUtPgncbAEcABwIrG8eR6l0N7Nn2szfGE/sA8A3gUOscUrnrgZOTNLvZOog0X3F40cHA4eQnGkp7XJCk2SesQ1iJdgAI3h0NnG6dQyqzgHw15+Qkze6wDiPtU6wYevLLA9sax5HqHJOk2RnWISxEOQAE7/YBLkP7+7fBCPBj4JQkze6xDiNxKPYLOZL8UcJljONIfxYA+yZp9hPrIMMW3QAQvNuefEtX7fLXbC8A3wO+rBv7xEqx2+CJ5DsO6gNFcz0HvD1Js1utgwxTVANA8G5D4Db0rH+TzSc/nfH0JM0etg4jAhC82xw4lXw/AWmmJ4DtkjR70DrIsEQzAATvppM/A76hdRbpyRzgAuAren5X6ip491bgy8A2tkmkRw8C2yZpNts6yDBEMQAE75YlX/bf2TqLdO0p4DzgnFj+UkrzBe/eB5yMDiFqopvJLwe0fnfQWDa5OAOVfxN9B9goSbMvqPylSZI0+xmwKXAI8IhxHOnOzuSd0XqtXwEI3n0A+KF1DunKH4BPJGn2a+sgIv0K3k0FDgP+GXiFcRwpb78kzX5kHWKQWj0ABO82Jb/ur6N9m2EO8K/A2TEsv0lcgnerAZ8HPo0eHWyCOeT3A9xrHWRQWjsAFLt33QFsZJ1FSvk5cESSZrOsg4gMUvBuS+Bb6PyRJngA2DpJs6esgwxCKweA4N0k8kLZyzqLTGgGcFiSZldZBxEZluLG5KOAE4CptmlkApcDe7fxPJG23gR4HCr/unue/C7pN6r8JTZJmr2YpNnpwGZAZp1HxrUXeae0TutWAIJ37wKuob3DTRtkwCeTNPuTdRCROgjeHQiciW4SrKsRYLckza63DlKlVg0Awbv1gLuA6dZZZFSPAZ9J0uwH1kFE6iZ4tyZwLrCPdRYZ1WxgqzbtQNqaASB4NwW4BdjKOossZQT4OvD5tt5MI1KV4N2e5H9f1rbOIku5C9ghSbP51kGq0KZl8tNR+dfRQ8D2SZodpvIXmViSZlcAf0d+yqXUy1a06Bj5VgwAwbtdyTfakHr5ObBFkma/tQ4i0jCvAN5iHUJGdVjROY3X+EsAwbs1gACsaZ1FXvY8cHSSZudaBxFpmuJeppuA9W2TyDgeA5IkzR63DtKPNqwAXITKv05mkF8jU/mLdCl4ty4q/yZYk7x7Gq3RA0Dw7lBgD+sc8rKUfMn/TusgIk2j8m+cPYoOaqzGXgII3m0C/A7tolUHzwOfTdLsPOsgIk3UUf4bGEeR7swDtkzS7D7rIL1o5AAQvFue/JAf7aVt7y/A+5M0u8s6iEgTBe/WAf4vKv+mupv80KDnrYN0q6mXAE5C5V8HPyWfflX+Ij0oyv8mVP5NtgV5JzVO41YAgncOuBGYZJ0lYvPJd/T7mnUQkabqKP/XGkeR/i0A3pGkWaPOdWjUABC8ewVwD9ohy9KfyZf8f2cdRKSpgnevIV/2V/m3xyPAZkma/c06SFlNuwRwDip/SwuX/FX+Ij0qyv8mVP5tszZ5RzVGY1YAilP+rrPOEbGvkG/u04z/YERqqKP8X2ccRQZnl6acGtiIASB4N4186V83ytg4tji7XER6VJT/r4ANrbPIQM0gvxQwxzrIRJpyCeBLqPwtvAgcoPIX6U/wbm1U/rHYgLyzaq/2KwDBu62B24BlrLNEZh6wb5JmV1oHEWmyovxvQuUfk5eA7ZI0u8M6yHhqPQAE75YD7gQS6yyR+RuwR5Jmt1gHEWmyjk/+G1lnkaELwJuTNHvBOshY6n4J4GhU/sP238DOKn+R/gTv/g8q/5gl5B1WW7VdAQjebQz8HphinSUi9wPvStLsYesgIk1WlP9NqPxjNx/YPEmzP1kHGU0tVwCCd5OAC1H5D9Od5Mf4qvxF+qBP/tJhCnBh0Wm1U8sBAPgYsJN1iIjcALwtSbMnrIOINFnwbi3y8n+9dRapjZ3IO612ancJIHj3KvKl6FWts0TiMmD/Jp5kJVInHeW/sXUWqZ2ngNcnafZX6yCd6rgCcAoq/2E5H/igyl+kPyp/mcCq5N1WK7VaAQjebQncQT0Hk7b5lyTNTrQOIdJ0wbs1yW/4U/nLeEaAret0lkrdivar1C9TG52p8hfpX1H++uQvZUwm77jaqE3ZBu/2BXa0zhGB7wLHWIcQabqO8t/EOos0xo5F19VCLS4BBO+mAvcB61pnablrgD2TNHvROohIkwXvXk2+7K/yl27NBDZJ0myedZC6rAAcjcp/0H4L/IPKX6Q/Rfnrk7/0al1qskOg+QpA8G4d8k//K5oGabf7gB2TNJttHUSkyTrK/w3WWaTR5pKvAsyyDFGHFYDTUPkP0iPALip/kf4U5Z+h8pf+rUjefaZMVwCCdzsAvzEL0H5/A3ZK0uwP1kFEmqzYoOxXwN9ZZ5FW2dHy4DWzAaDYG/kOYCuTAO03D3inTvUT6Y/KXwboLvK9AUyK2PISwAdQ+Q/KS8C+Kn+R/hTln6Hyl8HYirwLTZisAATvlgH+HzowY1AOStLsYusQIk0WvFuD/JP/G62zSKvdD/xdkmYvDfsHW60AfASV/6Acr/IX6U9R/hkqfxm815N34tANfQUgeLcc8Cdgg6H+4Dicm6TZEdYhRJqso/w3tc4i0ZgBbJyk2QvD/KEWKwAHoPIfhMuAT1uHEGkylb8Y2YC8G4dqqCsAwbspwAPAOkP7oXH4A/CWJM3mWgcRaarg3erk5b+ZdRaJ0ixgoyTN5g/rBw57BeBjqPyrNhd4v8pfpHcqf6mBdcg7cmiGtgJQHPjzZ2CtofzAeByQpNm3rUOINFVR/r8EEussEr1HgdcN66CgYa4AfBKVf9UuVfmL9C54Nx2Vv9THWuRdORRDGQCCdysBxw7jZ0XkjwzxPxSRtlH5S00dW3TmwA1rBeBwYI0h/awYzCO/7j/HOohIE3WU/+bWWUSWsAZ5Zw7cwO8BKK79zwKmD/QHxeXgJM0usg4h0kQqf2mA2cA6g74XYBgrAB9F5V+l76v8RXoTvHslcCMqf6m36eTdOVADHQCCd5OBowb5MyLzJ+BQ6xAiTVSU/y+BN1lnESnhqKJDB2bQKwB7ARsO+GfE4jny6/7PWgcRaZqOT/4qf2mKDck7dGAGPQB8ZsCvH5NPJ2kWrEOINE1H+W9hnUWkSwPt0IHdBBi82xa4bSAvHp8fJWm2n3UIkaYJ3r2CvPy3tM4i0qPtkjS7fRAvPMgVgM8O8LVj8iBD3h5SpA1U/tISA+vSgQwAwbvXAnsP4rUjM5/8uv8z1kFEmkTlb+5F4GzrEC2xd9GplRvUCsCRA3ztmJycpNnd1iFEmqQo/xtQ+Vt5EdgvSbOjgO9ah2mByeSdOpAXrlRxw83QzzVuoQeB061DiDRJ8G418vLfyjpLpBaW/0+Lfz4SeNwwT1scUHRrpQbxKf1QYNoAXjc2nxrmudAiTafyN7dk+ZOk2Wzg03aRWmMaA9gDptKnAIJ3ywIz0al//UqTNPsH6xAiTdFR/m+2zhKppcq/U/DuamC34UZqnUeBdZM0e7GqF6x6BWAPVP79msOArveItFFR/tej8rcybvkXDgW0iVl/1iLv2MpUPQAcUvHrxejEJM1mWYcQaYLg3ark5b+1dZZIlSl/kjSbCXxuOJFardKOrWwACN6tC+xS1etF6v+hR2dESinK/wZU/lZKlX+H84HfDjBPDHYpurYSVa4AHFTx68Xon5I0e8E6hEjd6ZO/uW7LnyTNRoCDAb3H9W4yeddW9mJ9C94tAxxYxWtF7AdJmt1kHUKk7jrK/y3WWSLVdfkvlKTZvcCXq48UlQOLzu1bVZ/YdwVeU9FrxehpdHCSyISCd6sA16Hyt9Jz+Xc4Gbivojwxeg155/atqgFAN//15wtJmj1mHUKkzoryvx7YxjpLpKoof4r9TXS+SX8q6dy+B4Dg3VrA7hVkidXvga9ZhxCps45P/ip/G5WU/0JJmv0a+HkVrxWp3Yvu7UsVKwAHAstW8DoxWgB8Mkmzl6yDiNRVR/lva50lUpWWf4fjAb339WZZKrjvrq8BIHg3iQrvSIzQJUma3WodQqSugncrA9ei8rcyqPInSbP7gEuqft2IHFR0cM/6XQF4B7BBn68Rq/8FjrUOIVJXRflfB2xnnSVSAyv/DicA8wb4+m22AXkH96zfAWD/Pr8/ZicnafaEdQiROur45K/ytzGM8idJs0eArw7yZ7RcXx3c8wAQvFsB2LOfHx6xJ4ALrEOI1FFH+W9vnSVSQyn/DqeRr4hK9/YM3k3p9Zv7WQHYFVilj++P2dlJms21DiFSNyp/c8Muf5I0exI4dVg/r2VWoY89AfoZAPbt43tj9hR67E9kKcG7lYBrUPlbGXr5dzgf0CFovXl/r9/Y0wAQvJtKxccSRuT8JM2esg4hUidF+V8L7GCdJVKW5U+SZs8BX7T42S2wR3FJvmu9rgDsDkzr8XtjNgc4xzqESJ10fPJX+dswLf8OlwJ/MM7QRCsDu/Xyjb0OAFr+782/6c5/kUU6yn9H6yyRqkv5Lzwt8DjrHA3V02WArgeA4N00tPVvL+YDX7EOIVIXRflfjcrfSm3Kf6Ekza4EbrPO0UDvKS7Nd6WXFYA9gK5/kHBJkmb/bR1CpA6KDxJXAztZZ4lU7cq/w5nWARpoJeDd3X5TLwOAlv+79yL5s64i0VP5m6tz+QNcDsywDtFAXV8G6GoAKA7l6Olmg8h9P0mzh6xDiFjrKP+drbNEqu7lT3E4mnYH7N7uwbsVu/mGblcA9gR63nUoUiNokwuRheV/FSp/K7Uv/w4XA09bh2iYru/P63YA2KvLPy+QJmn2J+sQIpaKTyZXAX9vnSVSTSp/kjR7BrjQOkcDdbU9f+kBIHi3DH2ePBSpk60DiFhS+ZtrVPl3OA94yTpEw+wSvCvd692sAGwHrNZ9nqj9Ikmz31uHELHSUf5vNY4Sq6aWP0maPQz8zDpHw6wBbFX2D3czAPR84EDE9OlfolWU/y9Q+VtpbPl3OMs6QAOVfhywmwFAd/9355YkzW63DiFioaP832adJVJtKH+K91C9j3andFeXGgCCd68Gtug5TpwutQ4gYqHYkexKVP5WWlH+HbQK0J2tg3erl/mDZVcAdgEm9Z4nOvOBH1uHEBm2ovx/ATjrLJFqW/lDfh/Aw9YhGmQy8K6yf7AMLf9354okzZ60DiEyTB2f/FX+NtpY/gs3BjrXOkfDlLoPYMIBoHik4J19x4nLd60DiAxTR/m/3TpLpFpZ/h0uJf+/Ucop9ThgmRWAtwDT+88TjceBa61DiAxLUf5XoPK30vbypzhG/TrrHA2yOvDmif5QmQFAj/9150dJmr1gHUJkGDrKX5uE2Wh9+Xf4gXWAhpnw0n2ZAUDX/7uju/8lCsG7FchPblP524ip/CH/b22OdYgGmfA+gHEHgOL0vwmXEeRl9yVpdqd1CJFBK8r/CnR/kJXYyp8kzeaQDwFSzpuLDh/TRCsA25b4M7KIPv1L63V88lf524iu/Dt83zpAg0wm7/Bx/8B4tq8uS+stQP9xSst1lH+p54ylcjGXP8D1wBPWIRpk3A6faADYocIgbXdTkmYzrUOIDEpR/v+Oyt9K7OVPkmYvok3WujFuh485ABTH/25TeZz20rP/0lrBuynk5b+LdZZIRV/+HfQ0QHnbFF0+qvFWADYDVq4+TyvNA/QXU1pJ5W9O5b+4W4GHrEM0xMrkXT6q8QYALf+X9+9Jmj1jHUKkah3lr/1AbKj8l5Ck2QLgh9Y5GmTMLtcAUA3d/S+tU5T/z1H5W1H5j003XJfX0wCgJwDKeQy4wTqESJU6yl8bgdlQ+Y8jSbM/AME6R0OM2eWjDgDBu7WB9QYWp11+XpxWJdIKRfn/DJW/FZV/OVdZB2iI9YpOX8pYKwBa/i/vl9YBRKoSvFuevPxLHScqlVP5l6eV1/JG7fSxBgAt/5ezALjJOoRIFVT+5lT+3bkFmGsdoiFG7fSxBoDtBhikTf4zSbPZ1iFE+tVR/rtbZ4mUyr9LSZo9D9xsnaMhRu30pQaA4N1kxnluUBaTWQcQ6VdR/ikqfysq/95dbx2gITYrun0xo60AbARMHXyeVtAAII1WlP9PgfdYZ4mUyr8/ug+gnKnk3b6Y0QaAzQefpRVeBH5tHUKkVx3lv4d1lkip/PuUpNm9wKPWORpiqW4fbQBIhhCkDe7Q7n/SVEX5/wSVvxWVf3VutA7QEEt1uwaA3mn5XxopeLccefnvaZ0lUir/aukyQDmlBgBdAihHA4A0jsrfnMq/eloBKGf8SwDBu9WAdYcWp7meIz+RSqQxOsp/L+sskVL5D0CSZo8C91rnaIB1i45/2ZIrAHr8r5xbkzR7zjqESFlF+f8Ylb8Vlf9g6TJAOYt1/JIDgJb/y9HyvzRGR/m/1zpLpFT+g6cBoJzFOn7JAUA3AJajAUAaoSj/y1D5W1H5D8dvyLdml/Et1vEaALr3DHCHdQiRiXSU/97WWSKl8h+S4pHsB61zNMDoA4C2AC7t10mavWgdQmQ8wbtlgR+h8rei8h++u60DNMBiWwJ3rgCsA6w4/DyNo+N/pdaK8r8MeJ91lkip/G1oAJjYiuRdDyw+AKw/9CjN9CvrACJj6fjkr/K3ofK3owGgnPUX/qZzANhg+Dka5wXgHusQIqMpyv+HgLfOEimVvy0NAOW83PVaAejOX3T9X+qoo/z/wTpLpFT+xpI0+yvw39Y5GmD9hb/RCkB3/mQdQGRJRfn/AJW/FZV/fWgVYGJaAeiRBgCplY7y38c6S6RU/vWiAWBi6y/8jVYAuqMBQGqjKP/vo/K3ovKvHw0AE1t8BaDYMGRtszjNoQFAaiF4twx5+b/fOkukVP71pAFgYmsXnf/yCsA6jH40sCxOA4CYU/mbU/nXVJJmM4AnrXPU3GSKvQAWlr6W/yf2tyTNHrcOIXEryv97wL7WWSKl8q8/rQJMbANYNACsb5ejMe63DiBx6yj/D1hniZTKvxn+0zpAA6wPQRCXOgAAIABJREFUWgHohpb/xUxR/t9F5W9F5d8cf7YO0ABaAeiSBgAx0VH++1lniZTKv1lmWgdogPVh0QCwpl2OxtAAIENXlP+lqPytqPybZ5Z1gAZYExYNANMNgzSFBgAZqo7y/6B1lkip/JtJA8DEpoMGgLJGgAesQ0g8ivL/Dip/Kyr/hkrSbDYwzzpHzWkA6MLDSZrNtw4hcQjeTQa+DXzIOEqsVP7Np1WA8eUDQPBuBWBF4zB1p+V/GYqi/L8DfNg6S6RU/u2gAWB8KwbvVpiMPv2XoQFABq7jk7/K34bKvz00AExsugaAcjQAyEB1lP9HjKPESuXfLnoUcGLTJwOrW6doAP3HJANTlP8lqPytqPzbRysAE1tdKwDlPGMdQNqpKP+Lgf2ts0RK5d9OGgAmpksAJT1rHUDap6P8/9E6S6RU/u2lAWBiGgBK0gqAVKoo/4tQ+VtR+bebBoCJaQAoSQOAVKaj/D9qHCVWKv+WS9LsGeAp6xw1pwGgJA0AUomi/L+Fyt+Kyj8eGgDGN30yMM06Rc2NAHOtQ0jzBe8mARcCB1hniZTKPy563x7ftMnAFOsUNTcnSbMF1iGk2Yry/xZwoHWWSKn846MBYHxTJgPLW6eoOS3/S186Pvmr/G2o/OOkA4HGt7xWACamAUB61lH+B1lniZTKP15aARjfFA0AE9MeANKTovy/icrfiso/bloBGJ8uAZSgFQDpWlH+/wYcbJ0lUip/0QrA+HQJoAQNANKVjvI/xDpLpFT+AloBmIguAZSgSwBSWlH+F6Dyt6Lyl4W0AjA+XQIoQSsAUkpH+X/MOkukVP7SSSsA49MlgBI0AMiEivL/Bip/Kyp/WZJWAManSwAlaACQcRXl/3Xg49ZZIqXyl9FoABifLgGUoHsAZEwd5X+odZZIqfxlLLoEMD5dAihBKwAyqqL8v4bK34rKX8ajFYDxTZlsnaABRqwDSP0U5X8+8AnrLJFS+ctE1G8TmAzMtw5RcytaB5BaOh/4pHWISKn8pYyVrQPU3PzJwPPWKWpuqnUAqZfgncrfjspfylrJOkDNPa8VgIlpBUBeVpT/P1nniJTKX7qhFYDxzdcAMDENAAJA8O48VP5WVP7SLQ0A49MlgBJ0CUAI3p0LfMo6R6RU/tILDQDj0yWAErQCELmi/A+zzhEplb/0SvcAjE+XAErQCkDEgndfReVvReUv/dAKwPh0CaAErQBEKnh3DnC4dY5IqfylXxoAxqdLACVoBSBCRfkfYZ0jUip/qYIGgPHpEkAJWgGITPDubFT+VlT+UhXdAzA+XQIoQSsAEQnenQV82jpHpFT+UiWtAIxPlwBK0ApAJIryP9I6R6RU/lKZ4qwOrQCMb/5kYI51iprTABCB4N1XUPlbUflL1aYBk6xD1NycycBs6xQ1t6p1ABmsovyPss4RKZW/DII+/U9stgaAia0avNO1pJYK3p2Jyt+Kyl8GRe/ZE9MAUNI61gGkesG7M4DPWOeIlMpfBkkDwMQ0AJSkAaBlivL/rHWOSKn8ZdA0AExMA0BJGgBaJHh3Oip/Kyp/GQYNABObPRl4wjpFA2gAaIng3WnA0dY5IqXyl2FZ1zpAAzyhFYBy9B9TCxTlf4x1jkip/GWYNrYO0AC6BFCSVgAaLnj3ZVT+VlT+MmwaACY2e3KSZs8Bc62T1JwGgAYL3p0KHGudI1Iqf7GgAWB8c5M0e25y8Q9aBRifBoCGKsr/n61zRErlL0MXvFsBXbadyGwADQDlTA3eTbcOId0J3p2Cyt+Kyl+sbMSibpPRaQDoklYBGiR4dzJwnHWOSKn8xZKW/ye22ADwmGGQptAA0BBF+R9vnSNSKn+xpgFgYo/BogHgIbscjaFrSg0QvDsJlb8Vlb/UgQaAiT0EiwaAGXY5GuN11gFkfMG7LwGfs84RKZW/1IUGgInNAK0AdONN1gFkbEX5f946R6RU/lInGgAm9hBoBaAbW1gHkNEF705E5W9F5S+1Ebx7NbCqdY4GWGwFYBYwYpelEVYL3m1gHUIWF7z7V+AL1jkipfKXutGn/4mNkHd+PgAkafYC8IhloobQKkCNBO9OAL5onSNSKn+pIw0AE3uk6PzFNkvQZYCJaQCoiaL8/8U6R6RU/lJXGgAm9nLXdw4ADw0/R+NoAKiB4N2/oPK3ovKXOnu9dYAGeGjhb7QC0B0NAMaCd18ETrDOESmVv9SdVgAmphWAHv2f4N2rrEPEqij/f7XOESmVv9Ra8G454LXWORrgoYW/0QpA97QKYCB49wVU/lZU/tIEmwHLWodoAK0A9EEDwJAF7z4PnGidI1Iqf2mKt1kHaIiHFv6mcwCYBcwdepTm0QAwREX5f8k6R6RU/tIkzjpAA8yl2AMAOgaAJM1GgHssEjWMBoAhCd59DpW/FZW/NEbwbllgJ+scDXBP0fXA4isAAGHIYZpow+DdytYh2i54dzxwknWOSKn8pWm2AvS+PLHFOl4DQPcmATtah2izovxPts4RKZW/NJGW/8sZdwD4/RCDNNk7rQO0VfDuOFT+VlT+0lS6AbCcxTp+yQFA9wCUowFgAIJ3/wycYp0jUip/aaTg3fLADtY5GmKxjl9sAEjS7Elg5lDjNNOmwbu1rEO0SVH+p1rniJTKX5psG2BF6xANMLPo+JctuQIAugxQ1jusA7RF8O5YVP5WVP7SdFr+L2epbh9tANCNgOXoMkAFgnfHAF+2zhEplb+0gW4ALGepbtcA0DutAPSpKP/TrHNESuUvjRe8WwHY1jpHQ5QaAHQJoJy1gnebWodoquDd0aj8raj8pS22B6ZYh2iIUpcAHgDmDT5LK+gyQA+Cd58FTrfOESmVv7SJlv/LmUfe7YtZagDQlsBdeZd1gKYpyv8M6xyRUvlL2+gGwHIW2wJ4odFWAABuG3CYtti5eAZVSgjefQaVvxWVv7RK8G4lYGvrHA0xaqePNQDcOsAgbbIi2oCilODdUcCZ1jkipfKXNtoRWM46REOM2uljDQC3DDBI2+g+gAkU5f8V6xyRUvlLW+n6f3mjdvqoA0CSZo8ADw80Tnvsbh2gzoJ3R6Lyt6Lyl1YK3k0C9rHO0RAPF52+lLFWAECXAcpKgndvtA5RR8G7TwNnWeeIlMpf2mwnYH3rEA0xZpePNwDoMkB5H7IOUDdF+Z9tnSNSKn9pu49YB2iQMbtcA0A19iuWpAQI3h2Byt+Kyl9ardj9T8v/5fU0ANwDPFN9llZan3xHqugV5X+OdY5IqfwlBnsCq1qHaIhnGGdfnzEHgCTNXgJ+O4hELfVB6wDWgneHo/K3ovKXWGj5v7zfFl0+qvFWAECXAbrx/uDdstYhrATvDgO+ap0jUip/iULwbg1gV+scDTJuh080AOhJgPJWJ9KtgYvyP9c6R6RU/hKT/YBoP2j1YNwOn2gAuB1Yav9gGVN0TwME7z6Fyt+Kyl9is791gAYZIe/wMY07ACRp9jRwZ5WJWm6v4N006xDDErz7J+A86xyRUvlLVIJ3bwC2ss7RIHcWHT6miVYAAK6pKEwMpgF7WYcYhqL8z7fOESmVv8RIN/915+qJ/kCZAeDaCoLEpPVPAwTvPonK34rKX6JT7LPyYescDTPhh/cyA8B/ALP7zxKNXYJ3q1uHGJTg3SdQ+VtR+Uus3gqsYx2iQZ6gxOX7CQeAJM1GgBuqSBSJZWnpjSpF+X8N0K6Hw6fyl5i18j11gK4runtcZVYAQPcBdOvw4N0y1iGqFLw7FJW/FZW/RCt4NxXw1jkaZsLr/1B+ALgOWNB7luisB7zPOkRVivL/Oip/Cyp/id17gZWtQzTICHB9mT9YagBI0ux/gLv7SRSho6wDVCF493FU/lZU/iLwUesADXNHkmZPlPmDZVcAQJcBurVt8G5b6xD9CN59DPgGKn8LKn+JXvDuTUS6w2ofSnd1NwOAHgfsXmNXAYryvwCVvwWVv0jueOsADVTq+j90NwDcBjzZfZaovS94t551iG4F7w5B5W9F5S8CBO82Rjf/detx4K6yf7j0AFAcKXhjL4kitgxwmHWIbgTvDgb+DZW/BZW/yCLH0d2HVCn5+N9C3f7LvbzLPy9wSPCuEXewFuX/TVT+FlT+IoXg3fpEeLhaBa7o5g93OwBcAczv8ntitwpwoHWIiQTvDkLlb0XlL7K4Y9Cxv92aA1zVzTd0NQAUJwvpaYDuHVHnjYGK8r8Qlb8Flb9Ih+DdWjTgQ1MNXZWk2dxuvqGX6yuX9fA9sduAmp4SGLw7EJW/FZW/yNI+A0yxDtFAP+72G3oZAK4E5vXwfbH7rHWAJQXvDgC+hcrfgspfZAnBu+nAodY5GuhZunj8b6GuB4Akzbq+ziAAbBe828M6xEIqf1Mqf5HRHQFMsw7RQL9I0qzrD+a9PmKhywC9OTV4Z/5YS/Duo+Tlb54lQip/kVEE71ahYY9N10jXy//QewFcRX7HoXTnjRgfa1mU/0Wo/C2o/EXG9klgNesQDfQMPd6c31MJFEsNV/byvcKJwbsVLH5w8O4fUflbUfmLjKE48vdI6xwNdWWSZs/18o39FIEuA/RmHeBTw/6hwbv9gYtR+VtQ+YuM7xDgVdYhGqqn5X/orwyuBZ7u4/tjdlzwbmhLXUX5X4LK34LKX2QcwbvlgaOtczTU0/RxUF/PhVAsOXS17aC87JXAscP4QcG7j6Dyt6LyF5nYR4HXWIdoqCuSNOt5d95+S+HSPr8/ZkcE79Ye5A8oyv/bqPwtqPxFJlCshH7JOkeD9dXB/RbDjcCMPl8jVlOBEwb14sG7D6Pyt6LyFynnFHTtv1cz6POE3r7KIUmzBeR3lUtvDgjebVL1ixbl/x1U/hZU/iIlBO+2Aj5unaPBLio6uGdVFMTF5G960r1lyCfgygTvPoQ++VtR+YuUUGyI9g30PtWrF8m7ty99/8tP0uxRtDVwP/YO3u1UxQsF7z5I/sm/ticPtpjKX6S8Q4CtrUM02FVF9/alqunrwopeJ1bfDN71dfpVUf6XovK3oPIXKSl4tzpwqnWOhqukc6saAK4F/qui14rRJsDnev3m4N1+qPytqPxFunM68ArrEA32X/Tx7H+nSgaAJM1eooLrEZH75+Ddpt1+U1H+30Xlb0HlL9KF4N325M/9S+8uLjq3b1XegHERMFLh68VmOeBb3ZwWGLz7ACp/Kyp/kS4E75YBvo6OIO/HCBU+eVfZAJCk2UzguqpeL1LbUPKcgODdvsD3UPlbUPmLdO9TwObWIRruuqJrK1H1Ixi6GbB/Jwfv1h3vDxTl/31U/hZU/iJdCt6tBZxonaMFKu3YqgeAK4G+H02I3ErABWP9fwbv3o/K34rKX6Q3ZwKrWIdouEfJO7YylQ4ASZq9CJxf5WtGarfisb7FqPxNqfxFehC8exuw1PuZdO38omMrM4hdmC4A5gzgdWNzTvBu+sJ/CN7tQ17+y9pFipbKX6QHwbvlgK9Z52iBOYyzMtyrygeAJM3+l/z4WenPGsDZ8HL5/wCVvwWVv0jvPgO8wTpEC1xSdGulJi1Y0NdZAqMK3r0WeADt81yFs4HDUPlbUPmL9Ch4tyVwK9DXLqfCCLBRkmZ/qfqFBzIAAATvfgr4gby4yOCp/EV6FLxbBbgL2NA6SwukSZr9wyBeeJCf0M8c4GuLDJLKX6Q/30TlX5WBdenABoAkzW4HbhnU64sMiMpfpA/Bu48D+1rnaIlbii4diEFfo//KgF9fpEoqf5E+BO82B86xztEiA+3QQQ8AlwMPDvhniFRB5S/Sh+DdSsCPgRWss7TEg+QdOjADHQCSNBsBzhrkzxCpgMpfpH8XAK+3DtEiZxUdOjDDeEzv28DsIfwckV6o/EX6FLw7CPiQdY4WmU3enQM18AEgSbN5aBVA6knlL9Kn4N0bgfOsc7TMWUV3DtSwNuo5F3h8SD9LpAyVv0ifgncrAj8BplpnaZHHyTtz4IYyACRp9ixw2jB+lkgJKn+RanwNbfVbtdOKzhy4YW7V+3V0VLDYU/mLVCB4tz/wUescLfMoeVcOxdAGgOJ6xqnD+nkio1D5i1QgeLcJQyyqiJw6jGv/Cw37sJ5vArOG/DNFQOUvUong3VTy6/7TrLO0zCzyjhyaoQ4ASZrNB04a5s8UQeUvUong3TLkR5Nvap2lhU4qOnJoLI7rvQSYYfBzJU4qf5HqXAC81zpEC80g78ahGvoAkKTZC8CJw/65EiWVv0hFgncnAQdb52ipE4tuHCqLFQCA7wL3G/1siYPKX6QiwbvDgM9Z52ip+8k7cehMBoAkzV4CTrD42RIFlb9IRYJ3+6IT/gbphKITh85qBQDgR8Bdhj9f2knlL1KR4N07gEux7Yo2u4u8C02Y/Y+apNkC4Airny+tpPIXqUjwbivg58Dy1lla7IiiC02YTnVJmt0C/NAyg7SGyl+kIsG7jYBrgJWss7TYD4sONFOHZZ1jgbnWIaTRVP4iFQnerQVcB6xhnaXF5pJ3nynzASBJs1nooCDpncpfpCLBu1WBa4ENrLO03GlF95kyHwAKZwAzrUNI46j8RSoSvFsBuAJIrLO03EzyzjNXiwGgOPzgGOsc0igqf5GKFFv8/hDY2TpLBI4Z5oE/46nFAACQpNllwG+sc0gjqPxFqvUNtMXvMPym6LpaWNY6wBKOAO6gRoOJ1I7KX6QixSf/bwCHWGeJwAg1e/S9VkWbpNnvMDgQQRpD5S9SkeKa/09R+Q/LJUXH1UatBoDC8cBT1iGkdlT+IhUp7va/Di37D8tT5N1WK7UbAJI0+ys1eD5SakXlL1KR4jn/m9ENf8N0bNFttVK7AaDwTeDX1iGkFlT+IhUpdvi7BT3qN0y/Ju+02pm0YIHZNsTjCt5tDPwemGKdRcyo/EUqUuztfw3a4W+Y5gObJ2n2J+sgo6nrCgDFv7ATrXOIGZW/SEWKU/1uQuU/bCfWtfyhxgNA4QwgWIeQoVP5i1QkeLcvcBU62GfYAjXZ8W8stR4AkjR7ATgYeMk6iwyNyl+kIsG7w4AfoCN9h+0l4OCiw2qr1gMAQJJmdwDnWueQoVD5i1QkeHcS+Xtn7d/nW+jcortqrW47AY7lC+TPq+qEqvZS+YtUoNjd7wLy1VMZvhnknVV7jZgMkzSbAxxqnUMGRuUvUoHg3VTy3f1U/nYOLTqr9hoxAAAkaXY9cKl1Dqmcyl+kAsG7TYD/QLv7Wbq06KpGaMwAUPg08Ih1CKmMyl+kAsG7/YE7gU2ts0TsEfKOaozabgQ0luCdA24EJllnkb6o/EX6FLxbEfga8FHjKLFbALwjSbPMOkg3mrYCQPEv+EzrHNIXlb9In4J3byT/1P9R4ygCZzat/KGBA0Dh88Dd1iGkJyp/kT4F7w4C7gDeYJ1FuJu8kxqncZcAFipuePkdMNU6i5Sm8hfpQ/BuJfJH/D5knUUAmAdsmaTZfdZBetHUFQCKf+FHWeeQ0lT+In0I3m0O3IXKv06Oamr5Q4NXABYK3l0B7GGdQ8al8hfpQ/Du48A5wArWWeRlVyZptqd1iH40ZSfA8RxEfujCmtZBZFQqf5EeBe9WIT9Lfl/rLLKYx8i7p9EaewlgoSTNHgcOIH8MQ+rnPJW/SPeCd1uSL/mr/OtlAXBA0T2N1vhLAAsF774KHG6dQ0b1XeDIJM1mWwcRqbvg3XLAZ4ATgCm2aWQU5yZpdoR1iCo0fgWgwzHk07LUz0eAPwbvPmgdRKTOgndvA34PnIrKv47uIu+aVmjNCgBA8G498v+BpltnkTFdQ35YxkzrICJ1Ebxbi3yDMw3J9TUb2CpJs4etg1SlVQMAQPDuXeQl06bVjbZ5FvgccH6SZiPWYUSsFEf3fgo4EVjFOI6MbQTYrUkH/ZTRupIs/gdqxFnMEVsJ+Cpwa/BOh5dIlIJ325OvWJ6Dyr/uvtC28ocWrgAABO8mAT8H9rLOIhN6AfgycHKSZvOtw4gMWvBudeB08j38dahZ/V0O7J2kWevKspUDAEDwblXyvbI3ss4ipdwHfCxJs19bBxEZhODdZOAQ8hv8XmEcR8p5ANg6SbOnrIMMQmsHAIBiefl2YJp1Fint58DxTd5eU2RJwbutgG8AW1tnkdLmANsmaXavdZBBafUAABC8+wDwQ+sc0pWXgEuAE5I0e8Q6jEivgnerAacAH6eF91y13H5Jmv3IOsQgtX4AAAjenQ182jqHdG0e+c2CpyVp9qR1GJGygnfLk1/j/xLwKts00oNzkjQ70jrEoMUyACwL/BLY2TqL9OR/ya+bnp+k2XPWYUTGErybSn6d/2jgNcZxpDc3A29P0uxF6yCDFsUAABC8m05+P8CG1lmkZ7OALwKXav8AqZPi0J5PAkeiT/xN9iD5df8oti2PZgAACN5tCNwGrG6dRfryB+C4JM2utA4icSs+WBwBHAasZhxH+vMEsF2SZg9aBxmWqAYAeHnzjV+ic7Xb4Dby7VMvT9LsJeswEo9i697PAIeip4za4DnyZf9brYMMU3QDAEDwbh/gMrQJR1vMIL9Z8OIkzZ6xDiPtFbxbn/wwmAPRYT1tsQDYN0mzn1gHGbYoBwCA4N3R5LtxSXs8DVwInNemAzvEXvBuY+A44EPAssZxpFrHJGl2hnUIC9EOAADBu2+QL+FJu7wE/Aw4K0mz263DSHMF794EHA949Bx/G12QpNknrENYiX0AWAa4Ani3dRYZmNuBs4Cf6T4BKaN4lO+95M/xv8s2jQzQ1cCeMb8vRD0AAATvViJ/7nML6ywyUA8D55I/QviEdRipl+IAsbcC+5N/2l/ZNJAM2t3AzkmaPWsdxFL0AwC8fEfvb4F1rLPIwL0IXAf8gPzpgTnGecRQ8O4NwEeAD6O//7GYBWyTpNmj1kGsaQAoFG8EN6M9AmIyh/yoz+8D18ew85dA8G4NYD/yT/tbGceR4XqC/JP/H62D1IEGgA7Buy2AXwGrWmeRoXsC+DH5ysCtbTz7O2bBuxWAPck/7e+K7uSP0VPA25I0u9s6SF1oAFhC8G474Aa0uUfMHiI/QfL7SZr9wTiL9Ki4rr8Teenvgwb7mM0B3pmk2W3WQepEA8AogncOuArtFigQyP9buAG4JUmz543zyDiKm3p3BBx56a9vGkjq4Dlg9yTNMusgdaMBYAzBu/eQP0u+nHUWqY255PeJXA/ckKTZvcZ5olcs7W9PXvhvA7ZGf2dlkReA9yVp9gvrIHWkAWAcwbv3ky8FawMQGc2jwI3kqwM36q7iwQveLQ9sQ172DtgWbckroxsB9kvS7MfWQepKA8AEgncHABehcwNkYveSDwM3AL/RuQT9C94tC7yZvPDfBuwArGgaSppgAXBQkmaXWAepMw0AJQTvDiPfREakrAXkZ4vf3fmVpNlfTVPVXPBuOWAzFn3C3wltyiPdOzxJs/OsQ9SdBoCSgnfHAadY55DG+2+WHgpm2EYavuDdq4GNO75eX/z6WvSInvTn+CTNTrUO0QQaALqgIUAG5EnyYeA/gT8DM8l3K5uVpNlsy2D9KG7Q24jFi37hlx7Jk0FQ+XdBA0CXissBX0X3BMhwzKMYBoqvmUv886xh3mtQPFs/DViJfGm+82tdFi/5ddENtDIcC4AjtOzfHQ0APShuDPwWenOTeniq+JpbfM2b4NfO308mL+8lC32sf14JDb9SLyPAwbrhr3saAHpUPCL4PfTMsYiIlReAD+tRv95oAOhDsVnQT9COgSIiw/YcsI82+emdBoA+FdsGX4HODhARGZY5wJ7a3rc/GgAqUBwgdA26s1lEZNCeAnbTwT790wBQkeIo4euB1a2ziIi01BPAu3SkbzV0F3tFiv8gdyZ/NEtERKo1C9hZ5V8dDQAVStLsj+QHleg/UBGR6twNbFO8x0pFNABUrDgRbmfgaussIiItcDX5J3+dtlkxDQADkKTZs8CewAXWWUREGuwC8rv9n7UO0ka6CXDAgndHA6eh3dNERMpaABybpNkZ1kHaTAPAEATv9gEuRRsGiYhM5Dlg/yTNfmIdpO00AAxJ8G574HL0mKCIyFieAPZK0uxW6yAx0AAwRMG7Dck3DNrQOouISM08SL7Bz4PWQWKhmwCHqPgPe1vgZussIiI1cjOwrcp/uDQADFmSZrOBtwPnWGcREamBc4C3F++NMkS6BGAoePcB4FvoICERic8c4OAkzX5kHSRWGgCMBe82BX4GbGSdRURkSB4A3pek2b3WQWKmSwDGir8AW5M/ISAi0naXA1ur/O1pAKiBJM2eAvYGPgeMGMcRERmEEfL3uL2L9zwxpksANRO8exfwA2C6dRYRkYrMBj6YpNn11kFkEQ0ANRS8Ww9Iga2ss4iI9OkuwCdp9rB1EFmcLgHUUPEXZQfgXPI9sUVEmmYB+XvYDir/etIKQM0F73YFLgHWtM4iIlLSY8ABSZpdax1ExqYVgJor/gIlwJXWWURESrgSSFT+9acVgAYJ3h0KnAVMtc4iIrKEecBRSZpdYB1EytEA0DDBu03InxLYwjqLiEjhbvK7/O+zDiLl6RJAwxR/wbYFzkA3CIqIrQXk70XbqvybRysADRa8c8ClwNrWWUQkOo8A+ydpllkHkd5oBaDBir94m5EPASIiw3IpsJnKv9m0AtASxQ6CFwAbWGcRkdaaARyqHf3aQSsALVH8hdwMOBt4yTiOiLTLS+TvLZup/NtDKwAtFLzbGvgW+f4BIiL9CMDBSZrdYR1EqqUVgBYq/qK+mfzkrfnGcUSkmeaTv4e8WeXfTloBaLng3cbAhcBO1llEpDF+DRySpNmfrIPI4GgFoOWKv8B/DxwK6AxuERnPU+TvFX+v8m8/rQBEJHj3KuAU4AA0/InIIiPkh44dn6TZX63DyHBoAIhQ8G5L4KvAjtZZRMTcb4AjkjT7nXUQGS4NABEL3u0LnA6sa51FRIZuJnBMkmaXWQcRGxoAIhe8mwocDRwLrGgcR0QGby77n22LAAAEPklEQVRwGnBGkmbzrMOIHQ0AAkDwbh3yN4X9rLOIyMD8EDg2SbNZ1kHEngYAWUzwbgfy+wO2ss4iIpW5i/w6/y3WQaQ+dCe4LKZ4g9ga+CBwv3EcEenP/eR/l7dW+cuStAIgYwreLQN8BPgiOmRIpElmACcC303STGeDyKg0AMiEgnfLke8d8HlgHeM4IjK2WcBJwCVJmr1gHUbqTQOAlBa8mwJ8DDgOWMs4jogs8ihwKvDNJM10/oeUogFAulY8OvhJ8kcH1zCOIxKzx8mf3vm6HumTbmkAkJ4F71YCDgeOAqYbxxGJyWzgLODcJM2etQ4jzaQBQPpWrAh8lHwQ2NA2jUirPUhe/N/WJ37plwYAqUzwbjKwF/AZYAfjOCJtcgvwFeDyJM1GrMNIO2gAkIEI3m0LfBbYG+03IdKLEeDnwJlJmt1uHUbaRwOADFTw7rXAkeSPEU4zjiPSBHPIj+Y9O0mzv1iHkfbSACBDEbx7JXAo8Cn0CKHIaB4FzgcuSNLsf63DSPtpAJChCt4tC+wBHALsgi4PSNxGgOuAC4ErkzR70TiPREQDgJgJ3q0LHAQcCLzGOI7IMP0XcDFwUZJmM63DSJw0AIi54syBXclXBXYHlrVNJDIQLwJXkX/av1Z79Is1DQBSK8G7tchXBA5CBxBJO8wALgIuTtLsUeswIgtpAJBaCt5NAt4B7A/sCaxim0ikK08DVwCXAjcmaaY3WqkdDQBSe8UhRLsC7ye/gXBl20Qio3oGuBL4MfkSvw7lkVrTACCNErxbAdiNfBh4D7CSbSKJ3LPAL8hL/5okzZ4zziNSmgYAaaziDIJ3kw8Du6ONhmQ45pDfzPdj4GrtyS9NpQFAWiF4tyL5ELAn+f4COqZYqvQ4+fP6VwBXJWk21ziPSN80AEjrFIcSbUW+OrAbsDXacEi6MwLcAVwDXA3cpUN4pG00AEjrBe9WB95FPhDsAqxum0hq6gnyT/lXA9cnafaEcR6RgdIAIFEpVgfeTL4y8O7i91odiNMIcCd54V8D3KlP+RITDQASteDdKsC2wPbADsA26DHDtnoG+C1wC3ArcHuSZk/bRhKxowFApEOxLfFm5MPADuSDwXqmoaRXD5MX/S3F1z3afldkEQ0AIhMI3q3NomFgO/IBYappKFnSPOAe4DaK0k/S7BHbSCL1pgFApEvFfQQbAZsDSfG1ObCuZa6IzAR+D4Ti6/fAA7p+L9IdDQAiFQnerUa+OtA5GGwGrGiZq8Hmkn+q7yz6e5I0e9I0lUhLaAAQGaBitWAdYH3y0w2X/HVt4n0KYQR4hPy0vIdG+XWWPtWLDI4GABFDwbvlyAeEJYeDNYHpHV9NW0WYC8zu+HqMpUt+VpJmLxjlE4meBgCRBigOQVo4DKzO4sPBwq9pwBRg+eLXMr8HmA88X/xa5vdzWLzcF349sfD3OhRHpP7+P7g6EGMjHA6VAAAAAElFTkSuQmCC;" vertex="1" parent="1">
          <mxGeometry x="130" y="500" width="44" height="44" as="geometry" />
        </mxCell>
        <mxCell id="RBwo3LP9QpBpMymfKp9m-14" value="" style="shape=image;verticalLabelPosition=bottom;labelBackgroundColor=default;verticalAlign=top;aspect=fixed;imageAspect=0;image=data:image/png,iVBORw0KGgoAAAANSUhEUgAAAgAAAAIACAYAAAD0eNT6AAAABHNCSVQICAgIfAhkiAAAAAlwSFlzAAAPIgAADyIB+qfDbQAAABl0RVh0U29mdHdhcmUAd3d3Lmlua3NjYXBlLm9yZ5vuPBoAACAASURBVHic7d15uB1Vne7xb8IQQpg0oHCRSUGwhUJAZKZ1OQAiIK5GxIGWSdEWEBRocGgaGWQQEFBpEVAcUUsbkBlLLspgA9Iu8IqABpKmoYW0TEkIw8n9oypkJzlD7b1r719VrffzPOdJuDdnn7eR7Pe3V1WtNWnBggWISL0F71YAphdfq3f8vvNrGjAFWL74tczvAeYDzxe/lvn9HGD2KF9PLPx9kmbPDeLfg4hUZ5IGABE7wbvlgHWADYD1O35dk8XLfUWbhD2by+LDwWPAQ8CMjl9nJWn2glE+kehpABAZoODdZPKCX5+lS34DYG1gsk06cyPAIyw+FHT+OitJsxGjbCKtpwFApCLBu9WAzYDNgaT42ozmfXqvi7nAPUAovn4P3JOk2ZOmqURaQgOASJeKT/UbsXjRbw6sa5krIjPJh4HOweABrRaIdEcDgMgEgndrAzsA2wPbkX+qn2oaSpY0j3y14DbgVuCWJM0esY0kUm8aAEQ6BO+WIS/4HVhU+uuZhpJePUwxDBRf9yRp9pJtJJH60AAgUQverQJsS170OwDbACubhpJBeQb4LfkwcCtwe5JmT9tGErGjAUCiUly/fwuwK7Ab8GbivQs/diPAncA1wLXAf+g+AomJBgBpveDdq4FdyAv/neTP1YssaTZwA/lAcF2SZv9jnEdkoDQASOsU1/G3Y9Gn/C2ASaahpGkWAHezaHXgNt0/IG2jAUBaobiWvyewF/AOYDXbRNIyTwI3ApcDV+jeAWkDDQDSWMG7acAewL7kn/SnjP8dIpWYT74ycBlwZZJmc4zziPREA4A0SvBuKrA7eenvjp7HF1vzgKvIh4GrkjSbZ5xHpDQNAFJ7xUl4u5KX/h7kp96J1M0c4EryYeBanYgodacBQGopeDeJ/Fr+/uTX9lexTSTSlaeBK4BLgRuTNNMbrdSOBgCpleDdWsCBwEHkp+WJNN0M4CLg4iTNHrUOI7KQBgAxVzy2tytwCPl1/WVtE4kMxIvk9wtcSH6JQI8ViikNAGImeLcu+Sf9A4HXGMcRGab/Ai4GLkrSbKZ1GImTBgAZquDdsuQ38h1CvjuftuGVmI0A15GvClyZpNmLxnkkIhoAZCiCd68EDgU+BaxlHEekjh4FzgcuSNLsf63DSPtpAJCBCt69FjgSOAA9vidSxhzgEuDsJM3+Yh1G2ksDgAxE8G5b4LPA3miZX6QXI8DPgTOTNLvdOoy0jwYAqUxx1O5ewGeAHYzjiLTJLcBXgMt1ZLFURQOA9K3YnvejwFHAhrZpRFrtQeAs4Nvadlj6pQFAeha8Wwk4nLz4pxvHEYnJbPJB4NwkzZ61DiPNpAFAulZ84v8kcCywhnEckZg9DpwGfF0rAtItDQBSWvBuCvAx4Dj0KJ9InTwKnAp8M0mz+dZhpBk0AMiEgnfLkT/G93lgHeM4IjK2WcBJwCVJmr1gHUbqTQOAjKnYo/8jwBfRwTwiTTIDOBH4rs4ckLFoAJClFEfxfgA4AXi9bRoR6cP95H+Pf6QjiWVJGgBkMcG7HYCvAltZZxGRytwFHJGk2S3WQaQ+NAAIAMG7dcjvJt7POouIDMwPgWOTNJtlHUTsaQCIXPFI39Hkj/StaBxHRAZvLvmwf4YeHYybBoCIBe/2BU4H1rXOIiJDNxM4Jkmzy6yDiA0NABEK3m1Jfp1/R+ssImLuN+T3B/zOOogMlwaAiATvXgWcQv5Mv07oE5GFRsiPID4+SbO/WoeR4dAAEIHisb6PkV/3W9U4jojU11Pk9wN9U48Ntp8GgJYL3m0MXAjsZJ1FRBrj18AhSZr9yTqIDI4GgJYqtu89mnwXvynGcUSkeeaT7yZ4hrYVbicNAC0UvNsa+BaQWGcRkcYLwMFJmt1hHUSqpQGgRYJ304AvAYcDyxjHEZH2eAk4F/hCkmZzrMNINTQAtETw7l3ABejQHhEZnBnAoUmaXW8dRPqnAaDhgnevAM4B9rfOIiLRuBT4dJJmf7MOIr3TANBgwTtH/hdxbessIhKdR4D9kzTLrINIbzQANFDwbnngJOCzwCTjOCISrwXAmcDnkzR73jqMdEcDQMME7zYBfgBsYZ1FRKRwN/DBJM3usw4i5Wk72AYJ3h0K/A6Vv4jUyxbA74r3KGkIrQA0QPBuDeAiYA/rLCIiE7gSOChJs8etg8j4NADUXPBuV/JDOta0ziIiUtJjwAFJml1rHUTGpgGgpoJ3U4DTgcPQjX4i0jwLgPOAY5I0m28dRpamAaCGgnfrASmwlXUWEZE+3QX4JM0etg4ii9NNgDVT7Oh3Fyp/EWmHrYC7ivc2qRGtANRE8G4ScBz5Xv4azESkbUaALwCnJmmm4qkBDQA1ELxbFfgOsJd1FhGRAbsc+MckzZ6yDhI7DQDGgnebAj8DNrLOIiIyJA8A70vS7F7rIDHTUrOh4N0HgNtR+YtIXDYCbi/eA8WIVgAMBO+WBc4APm2dRUTE2DnA0UmavWgdJDYaAIYseDedfMl/Z+ssIiI1cTP5JYHZ1kFiogFgiIJ3GwLXABtaZxERqZkHgd2SNHvQOkgsdA/AkATvtgduQ+UvIjKaDYHbivdKGQINAEMQvNsH+CWwunUWEZEaWx34ZfGeKQOmAWDAgndHA5cBK1hnERFpgBWAy4r3Thkg3QMwIMG7ZYDzAZ2PLSLSmwuATyVp9pJ1kDbSADAAwbuVyD/1v9s6i4hIw10N7Juk2bPWQdpGA0DFgndrAVcBW1hnERFpibuB3ZM0e9Q6SJtoAKhQ8O4NwHXAOtZZRERaZhawS5Jmf7QO0ha6CbAiwbstyDezUPmLiFRvHeDm4r1WKqABoALBu+2AX6HH/EREBml14FfFe670SQNAn4J3DrgBWNU6i4hIBFYFbijee6UPGgD6ELx7D/kNf9Oss4iIRGQacFXxHiw90k2APQrevR/4HrCcdRaREuYBzxRfz3b8fgRYEZha/Nr5+6loAyuptxeADydp9mPrIE2kAaAHwbsDgG+hFRQZrkeB+4CHgKdZVOJLlvpS/++9bqQSvJvE4gPBwiFhVfKbspb8WhdYrZefJdKjEeDgJM0usQ7SNBoAuhS8Owz4KjDJOou00nzyU9HuK77+tPDXJM2etgxWVrER1ljDweuADezSSUstAI5I0uw86yBNogGgC8G744BTrHNIK/yVUUoeeKjt254G71YF3gRsSb5h1hbAJsCylrmkFY5P0uxU6xBNoQGgJJW/9OF+IAN+S1H6SZo9aRupXoJ3KwCbsWgg2AJIyC87iHRDQ0BJGgBKKJb9z7XOIY0xk7zwMyBL0uwR4zyNVByotTH5SsFOwDvR5QMp53BdDpiYBoAJFDf8XYSu+cvY/od8I6iFhf9n4zytFbx7Hfkg8E7AoRsOZXQLgIN0Y+D4NACMo3jU74fobn9Z3JPATSwq/D/YxolTsULwZhYNBNuhx3JlkRFgPz0iODYNAGMoNpj4GXpDEZgD/Ab4JXnp352k2YhtJFlS8fTBW1k0ELzBNJDUwQvA+5I0+4V1kDrSADCKYovJq9AmKDF7iXyL50uBf0/SbJ5xHulS8O61wAeBD5E/ZSBxeo78KOHMOkjdaABYQnHIxA1oe99Y3Ute+t/T2ePtEbzbEvgw8AFgLeM4MnxzgHcmaXabdZA60QDQoThm8lfoYJ/YPA78ALg0SbPfWYeRwQneTSa/efBDwPuAVWwTyRA9BbwtSbO7rYPUhQaAQvDuDcDN6EjfWMwHfgF8B7gmSbMXjfPIkBV7D+xBPgzsBixvm0iG4Alg5yTN/mgdpA40AADBu7XIN2lZxzqLDNzt5Ev8P0rS7G/WYaQegnevBPYBDgK2No4jgzUL2EaX+DQALLxz+GbynceknWYC3yVf4r/fOozUW/BuR+BI4L3oEeC2upt8JeBZ6yCWoh4AiueIrwDebZ1FBuLX5Ns3X5ekWbz/oUtPgncbAEcABwIrG8eR6l0N7Nn2szfGE/sA8A3gUOscUrnrgZOTNLvZOog0X3F40cHA4eQnGkp7XJCk2SesQ1iJdgAI3h0NnG6dQyqzgHw15+Qkze6wDiPtU6wYevLLA9sax5HqHJOk2RnWISxEOQAE7/YBLkP7+7fBCPBj4JQkze6xDiNxKPYLOZL8UcJljONIfxYA+yZp9hPrIMMW3QAQvNuefEtX7fLXbC8A3wO+rBv7xEqx2+CJ5DsO6gNFcz0HvD1Js1utgwxTVANA8G5D4Db0rH+TzSc/nfH0JM0etg4jAhC82xw4lXw/AWmmJ4DtkjR70DrIsEQzAATvppM/A76hdRbpyRzgAuAren5X6ip491bgy8A2tkmkRw8C2yZpNts6yDBEMQAE75YlX/bf2TqLdO0p4DzgnFj+UkrzBe/eB5yMDiFqopvJLwe0fnfQWDa5OAOVfxN9B9goSbMvqPylSZI0+xmwKXAI8IhxHOnOzuSd0XqtXwEI3n0A+KF1DunKH4BPJGn2a+sgIv0K3k0FDgP+GXiFcRwpb78kzX5kHWKQWj0ABO82Jb/ur6N9m2EO8K/A2TEsv0lcgnerAZ8HPo0eHWyCOeT3A9xrHWRQWjsAFLt33QFsZJ1FSvk5cESSZrOsg4gMUvBuS+Bb6PyRJngA2DpJs6esgwxCKweA4N0k8kLZyzqLTGgGcFiSZldZBxEZluLG5KOAE4CptmlkApcDe7fxPJG23gR4HCr/unue/C7pN6r8JTZJmr2YpNnpwGZAZp1HxrUXeae0TutWAIJ37wKuob3DTRtkwCeTNPuTdRCROgjeHQiciW4SrKsRYLckza63DlKlVg0Awbv1gLuA6dZZZFSPAZ9J0uwH1kFE6iZ4tyZwLrCPdRYZ1WxgqzbtQNqaASB4NwW4BdjKOossZQT4OvD5tt5MI1KV4N2e5H9f1rbOIku5C9ghSbP51kGq0KZl8tNR+dfRQ8D2SZodpvIXmViSZlcAf0d+yqXUy1a06Bj5VgwAwbtdyTfakHr5ObBFkma/tQ4i0jCvAN5iHUJGdVjROY3X+EsAwbs1gACsaZ1FXvY8cHSSZudaBxFpmuJeppuA9W2TyDgeA5IkzR63DtKPNqwAXITKv05mkF8jU/mLdCl4ty4q/yZYk7x7Gq3RA0Dw7lBgD+sc8rKUfMn/TusgIk2j8m+cPYoOaqzGXgII3m0C/A7tolUHzwOfTdLsPOsgIk3UUf4bGEeR7swDtkzS7D7rIL1o5AAQvFue/JAf7aVt7y/A+5M0u8s6iEgTBe/WAf4vKv+mupv80KDnrYN0q6mXAE5C5V8HPyWfflX+Ij0oyv8mVP5NtgV5JzVO41YAgncOuBGYZJ0lYvPJd/T7mnUQkabqKP/XGkeR/i0A3pGkWaPOdWjUABC8ewVwD9ohy9KfyZf8f2cdRKSpgnevIV/2V/m3xyPAZkma/c06SFlNuwRwDip/SwuX/FX+Ij0qyv8mVP5tszZ5RzVGY1YAilP+rrPOEbGvkG/u04z/YERqqKP8X2ccRQZnl6acGtiIASB4N4186V83ytg4tji7XER6VJT/r4ANrbPIQM0gvxQwxzrIRJpyCeBLqPwtvAgcoPIX6U/wbm1U/rHYgLyzaq/2KwDBu62B24BlrLNEZh6wb5JmV1oHEWmyovxvQuUfk5eA7ZI0u8M6yHhqPQAE75YD7gQS6yyR+RuwR5Jmt1gHEWmyjk/+G1lnkaELwJuTNHvBOshY6n4J4GhU/sP238DOKn+R/gTv/g8q/5gl5B1WW7VdAQjebQz8HphinSUi9wPvStLsYesgIk1WlP9NqPxjNx/YPEmzP1kHGU0tVwCCd5OAC1H5D9Od5Mf4qvxF+qBP/tJhCnBh0Wm1U8sBAPgYsJN1iIjcALwtSbMnrIOINFnwbi3y8n+9dRapjZ3IO612ancJIHj3KvKl6FWts0TiMmD/Jp5kJVInHeW/sXUWqZ2ngNcnafZX6yCd6rgCcAoq/2E5H/igyl+kPyp/mcCq5N1WK7VaAQjebQncQT0Hk7b5lyTNTrQOIdJ0wbs1yW/4U/nLeEaAret0lkrdivar1C9TG52p8hfpX1H++uQvZUwm77jaqE3ZBu/2BXa0zhGB7wLHWIcQabqO8t/EOos0xo5F19VCLS4BBO+mAvcB61pnablrgD2TNHvROohIkwXvXk2+7K/yl27NBDZJ0myedZC6rAAcjcp/0H4L/IPKX6Q/Rfnrk7/0al1qskOg+QpA8G4d8k//K5oGabf7gB2TNJttHUSkyTrK/w3WWaTR5pKvAsyyDFGHFYDTUPkP0iPALip/kf4U5Z+h8pf+rUjefaZMVwCCdzsAvzEL0H5/A3ZK0uwP1kFEmqzYoOxXwN9ZZ5FW2dHy4DWzAaDYG/kOYCuTAO03D3inTvUT6Y/KXwboLvK9AUyK2PISwAdQ+Q/KS8C+Kn+R/hTln6Hyl8HYirwLTZisAATvlgH+HzowY1AOStLsYusQIk0WvFuD/JP/G62zSKvdD/xdkmYvDfsHW60AfASV/6Acr/IX6U9R/hkqfxm815N34tANfQUgeLcc8Cdgg6H+4Dicm6TZEdYhRJqso/w3tc4i0ZgBbJyk2QvD/KEWKwAHoPIfhMuAT1uHEGkylb8Y2YC8G4dqqCsAwbspwAPAOkP7oXH4A/CWJM3mWgcRaarg3erk5b+ZdRaJ0ixgoyTN5g/rBw57BeBjqPyrNhd4v8pfpHcqf6mBdcg7cmiGtgJQHPjzZ2CtofzAeByQpNm3rUOINFVR/r8EEussEr1HgdcN66CgYa4AfBKVf9UuVfmL9C54Nx2Vv9THWuRdORRDGQCCdysBxw7jZ0XkjwzxPxSRtlH5S00dW3TmwA1rBeBwYI0h/awYzCO/7j/HOohIE3WU/+bWWUSWsAZ5Zw7cwO8BKK79zwKmD/QHxeXgJM0usg4h0kQqf2mA2cA6g74XYBgrAB9F5V+l76v8RXoTvHslcCMqf6m36eTdOVADHQCCd5OBowb5MyLzJ+BQ6xAiTVSU/y+BN1lnESnhqKJDB2bQKwB7ARsO+GfE4jny6/7PWgcRaZqOT/4qf2mKDck7dGAGPQB8ZsCvH5NPJ2kWrEOINE1H+W9hnUWkSwPt0IHdBBi82xa4bSAvHp8fJWm2n3UIkaYJ3r2CvPy3tM4i0qPtkjS7fRAvPMgVgM8O8LVj8iBD3h5SpA1U/tISA+vSgQwAwbvXAnsP4rUjM5/8uv8z1kFEmkTlb+5F4GzrEC2xd9GplRvUCsCRA3ztmJycpNnd1iFEmqQo/xtQ+Vt5EdgvSbOjgO9ah2mByeSdOpAXrlRxw83QzzVuoQeB061DiDRJ8G418vLfyjpLpBaW/0+Lfz4SeNwwT1scUHRrpQbxKf1QYNoAXjc2nxrmudAiTafyN7dk+ZOk2Wzg03aRWmMaA9gDptKnAIJ3ywIz0al//UqTNPsH6xAiTdFR/m+2zhKppcq/U/DuamC34UZqnUeBdZM0e7GqF6x6BWAPVP79msOArveItFFR/tej8rcybvkXDgW0iVl/1iLv2MpUPQAcUvHrxejEJM1mWYcQaYLg3ark5b+1dZZIlSl/kjSbCXxuOJFardKOrWwACN6tC+xS1etF6v+hR2dESinK/wZU/lZKlX+H84HfDjBPDHYpurYSVa4AHFTx68Xon5I0e8E6hEjd6ZO/uW7LnyTNRoCDAb3H9W4yeddW9mJ9C94tAxxYxWtF7AdJmt1kHUKk7jrK/y3WWSLVdfkvlKTZvcCXq48UlQOLzu1bVZ/YdwVeU9FrxehpdHCSyISCd6sA16Hyt9Jz+Xc4Gbivojwxeg155/atqgFAN//15wtJmj1mHUKkzoryvx7YxjpLpKoof4r9TXS+SX8q6dy+B4Dg3VrA7hVkidXvga9ZhxCps45P/ip/G5WU/0JJmv0a+HkVrxWp3Yvu7UsVKwAHAstW8DoxWgB8Mkmzl6yDiNRVR/lva50lUpWWf4fjAb339WZZKrjvrq8BIHg3iQrvSIzQJUma3WodQqSugncrA9ei8rcyqPInSbP7gEuqft2IHFR0cM/6XQF4B7BBn68Rq/8FjrUOIVJXRflfB2xnnSVSAyv/DicA8wb4+m22AXkH96zfAWD/Pr8/ZicnafaEdQiROur45K/ytzGM8idJs0eArw7yZ7RcXx3c8wAQvFsB2LOfHx6xJ4ALrEOI1FFH+W9vnSVSQyn/DqeRr4hK9/YM3k3p9Zv7WQHYFVilj++P2dlJms21DiFSNyp/c8Muf5I0exI4dVg/r2VWoY89AfoZAPbt43tj9hR67E9kKcG7lYBrUPlbGXr5dzgf0CFovXl/r9/Y0wAQvJtKxccSRuT8JM2esg4hUidF+V8L7GCdJVKW5U+SZs8BX7T42S2wR3FJvmu9rgDsDkzr8XtjNgc4xzqESJ10fPJX+dswLf8OlwJ/MM7QRCsDu/Xyjb0OAFr+782/6c5/kUU6yn9H6yyRqkv5Lzwt8DjrHA3V02WArgeA4N00tPVvL+YDX7EOIVIXRflfjcrfSm3Kf6Ekza4EbrPO0UDvKS7Nd6WXFYA9gK5/kHBJkmb/bR1CpA6KDxJXAztZZ4lU7cq/w5nWARpoJeDd3X5TLwOAlv+79yL5s64i0VP5m6tz+QNcDsywDtFAXV8G6GoAKA7l6Olmg8h9P0mzh6xDiFjrKP+drbNEqu7lT3E4mnYH7N7uwbsVu/mGblcA9gR63nUoUiNokwuRheV/FSp/K7Uv/w4XA09bh2iYru/P63YA2KvLPy+QJmn2J+sQIpaKTyZXAX9vnSVSTSp/kjR7BrjQOkcDdbU9f+kBIHi3DH2ePBSpk60DiFhS+ZtrVPl3OA94yTpEw+wSvCvd692sAGwHrNZ9nqj9Ikmz31uHELHSUf5vNY4Sq6aWP0maPQz8zDpHw6wBbFX2D3czAPR84EDE9OlfolWU/y9Q+VtpbPl3OMs6QAOVfhywmwFAd/9355YkzW63DiFioaP832adJVJtKH+K91C9j3andFeXGgCCd68Gtug5TpwutQ4gYqHYkexKVP5WWlH+HbQK0J2tg3erl/mDZVcAdgEm9Z4nOvOBH1uHEBm2ovx/ATjrLJFqW/lDfh/Aw9YhGmQy8K6yf7AMLf9354okzZ60DiEyTB2f/FX+NtpY/gs3BjrXOkfDlLoPYMIBoHik4J19x4nLd60DiAxTR/m/3TpLpFpZ/h0uJf+/Ucop9ThgmRWAtwDT+88TjceBa61DiAxLUf5XoPK30vbypzhG/TrrHA2yOvDmif5QmQFAj/9150dJmr1gHUJkGDrKX5uE2Wh9+Xf4gXWAhpnw0n2ZAUDX/7uju/8lCsG7FchPblP524ip/CH/b22OdYgGmfA+gHEHgOL0vwmXEeRl9yVpdqd1CJFBK8r/CnR/kJXYyp8kzeaQDwFSzpuLDh/TRCsA25b4M7KIPv1L63V88lf524iu/Dt83zpAg0wm7/Bx/8B4tq8uS+stQP9xSst1lH+p54ylcjGXP8D1wBPWIRpk3A6faADYocIgbXdTkmYzrUOIDEpR/v+Oyt9K7OVPkmYvok3WujFuh485ABTH/25TeZz20rP/0lrBuynk5b+LdZZIRV/+HfQ0QHnbFF0+qvFWADYDVq4+TyvNA/QXU1pJ5W9O5b+4W4GHrEM0xMrkXT6q8QYALf+X9+9Jmj1jHUKkah3lr/1AbKj8l5Ck2QLgh9Y5GmTMLtcAUA3d/S+tU5T/z1H5W1H5j003XJfX0wCgJwDKeQy4wTqESJU6yl8bgdlQ+Y8jSbM/AME6R0OM2eWjDgDBu7WB9QYWp11+XpxWJdIKRfn/DJW/FZV/OVdZB2iI9YpOX8pYKwBa/i/vl9YBRKoSvFuevPxLHScqlVP5l6eV1/JG7fSxBgAt/5ezALjJOoRIFVT+5lT+3bkFmGsdoiFG7fSxBoDtBhikTf4zSbPZ1iFE+tVR/rtbZ4mUyr9LSZo9D9xsnaMhRu30pQaA4N1kxnluUBaTWQcQ6VdR/ikqfysq/95dbx2gITYrun0xo60AbARMHXyeVtAAII1WlP9PgfdYZ4mUyr8/ug+gnKnk3b6Y0QaAzQefpRVeBH5tHUKkVx3lv4d1lkip/PuUpNm9wKPWORpiqW4fbQBIhhCkDe7Q7n/SVEX5/wSVvxWVf3VutA7QEEt1uwaA3mn5XxopeLccefnvaZ0lUir/aukyQDmlBgBdAihHA4A0jsrfnMq/eloBKGf8SwDBu9WAdYcWp7meIz+RSqQxOsp/L+sskVL5D0CSZo8C91rnaIB1i45/2ZIrAHr8r5xbkzR7zjqESFlF+f8Ylb8Vlf9g6TJAOYt1/JIDgJb/y9HyvzRGR/m/1zpLpFT+g6cBoJzFOn7JAUA3AJajAUAaoSj/y1D5W1H5D8dvyLdml/Et1vEaALr3DHCHdQiRiXSU/97WWSKl8h+S4pHsB61zNMDoA4C2AC7t10mavWgdQmQ8wbtlgR+h8rei8h++u60DNMBiWwJ3rgCsA6w4/DyNo+N/pdaK8r8MeJ91lkip/G1oAJjYiuRdDyw+AKw/9CjN9CvrACJj6fjkr/K3ofK3owGgnPUX/qZzANhg+Dka5wXgHusQIqMpyv+HgLfOEimVvy0NAOW83PVaAejOX3T9X+qoo/z/wTpLpFT+xpI0+yvw39Y5GmD9hb/RCkB3/mQdQGRJRfn/AJW/FZV/fWgVYGJaAeiRBgCplY7y38c6S6RU/vWiAWBi6y/8jVYAuqMBQGqjKP/vo/K3ovKvHw0AE1t8BaDYMGRtszjNoQFAaiF4twx5+b/fOkukVP71pAFgYmsXnf/yCsA6jH40sCxOA4CYU/mbU/nXVJJmM4AnrXPU3GSKvQAWlr6W/yf2tyTNHrcOIXEryv97wL7WWSKl8q8/rQJMbANYNACsb5ejMe63DiBx6yj/D1hniZTKvxn+0zpAA6wPQRCXOgAAIABJREFUWgHohpb/xUxR/t9F5W9F5d8cf7YO0ABaAeiSBgAx0VH++1lniZTKv1lmWgdogPVh0QCwpl2OxtAAIENXlP+lqPytqPybZ5Z1gAZYExYNANMNgzSFBgAZqo7y/6B1lkip/JtJA8DEpoMGgLJGgAesQ0g8ivL/Dip/Kyr/hkrSbDYwzzpHzWkA6MLDSZrNtw4hcQjeTQa+DXzIOEqsVP7Np1WA8eUDQPBuBWBF4zB1p+V/GYqi/L8DfNg6S6RU/u2gAWB8KwbvVpiMPv2XoQFABq7jk7/K34bKvz00AExsugaAcjQAyEB1lP9HjKPESuXfLnoUcGLTJwOrW6doAP3HJANTlP8lqPytqPzbRysAE1tdKwDlPGMdQNqpKP+Lgf2ts0RK5d9OGgAmpksAJT1rHUDap6P8/9E6S6RU/u2lAWBiGgBK0gqAVKoo/4tQ+VtR+bebBoCJaQAoSQOAVKaj/D9qHCVWKv+WS9LsGeAp6xw1pwGgJA0AUomi/L+Fyt+Kyj8eGgDGN30yMM06Rc2NAHOtQ0jzBe8mARcCB1hniZTKPy563x7ftMnAFOsUNTcnSbMF1iGk2Yry/xZwoHWWSKn846MBYHxTJgPLW6eoOS3/S186Pvmr/G2o/OOkA4HGt7xWACamAUB61lH+B1lniZTKP15aARjfFA0AE9MeANKTovy/icrfiso/bloBGJ8uAZSgFQDpWlH+/wYcbJ0lUip/0QrA+HQJoAQNANKVjvI/xDpLpFT+AloBmIguAZSgSwBSWlH+F6Dyt6Lyl4W0AjA+XQIoQSsAUkpH+X/MOkukVP7SSSsA49MlgBI0AMiEivL/Bip/Kyp/WZJWAManSwAlaACQcRXl/3Xg49ZZIqXyl9FoABifLgGUoHsAZEwd5X+odZZIqfxlLLoEMD5dAihBKwAyqqL8v4bK34rKX8ajFYDxTZlsnaABRqwDSP0U5X8+8AnrLJFS+ctE1G8TmAzMtw5RcytaB5BaOh/4pHWISKn8pYyVrQPU3PzJwPPWKWpuqnUAqZfgncrfjspfylrJOkDNPa8VgIlpBUBeVpT/P1nniJTKX7qhFYDxzdcAMDENAAJA8O48VP5WVP7SLQ0A49MlgBJ0CUAI3p0LfMo6R6RU/tILDQDj0yWAErQCELmi/A+zzhEplb/0SvcAjE+XAErQCkDEgndfReVvReUv/dAKwPh0CaAErQBEKnh3DnC4dY5IqfylXxoAxqdLACVoBSBCRfkfYZ0jUip/qYIGgPHpEkAJWgGITPDubFT+VlT+UhXdAzA+XQIoQSsAEQnenQV82jpHpFT+UiWtAIxPlwBK0ApAJIryP9I6R6RU/lKZ4qwOrQCMb/5kYI51iprTABCB4N1XUPlbUflL1aYBk6xD1NycycBs6xQ1t6p1ABmsovyPss4RKZW/DII+/U9stgaAia0avNO1pJYK3p2Jyt+Kyl8GRe/ZE9MAUNI61gGkesG7M4DPWOeIlMpfBkkDwMQ0AJSkAaBlivL/rHWOSKn8ZdA0AExMA0BJGgBaJHh3Oip/Kyp/GQYNABObPRl4wjpFA2gAaIng3WnA0dY5IqXyl2FZ1zpAAzyhFYBy9B9TCxTlf4x1jkip/GWYNrYO0AC6BFCSVgAaLnj3ZVT+VlT+MmwaACY2e3KSZs8Bc62T1JwGgAYL3p0KHGudI1Iqf7GgAWB8c5M0e25y8Q9aBRifBoCGKsr/n61zRErlL0MXvFsBXbadyGwADQDlTA3eTbcOId0J3p2Cyt+Kyl+sbMSibpPRaQDoklYBGiR4dzJwnHWOSKn8xZKW/ye22ADwmGGQptAA0BBF+R9vnSNSKn+xpgFgYo/BogHgIbscjaFrSg0QvDsJlb8Vlb/UgQaAiT0EiwaAGXY5GuN11gFkfMG7LwGfs84RKZW/1IUGgInNAK0AdONN1gFkbEX5f946R6RU/lInGgAm9hBoBaAbW1gHkNEF705E5W9F5S+1Ebx7NbCqdY4GWGwFYBYwYpelEVYL3m1gHUIWF7z7V+AL1jkipfKXutGn/4mNkHd+PgAkafYC8IhloobQKkCNBO9OAL5onSNSKn+pIw0AE3uk6PzFNkvQZYCJaQCoiaL8/8U6R6RU/lJXGgAm9nLXdw4ADw0/R+NoAKiB4N2/oPK3ovKXOnu9dYAGeGjhb7QC0B0NAMaCd18ETrDOESmVv9SdVgAmphWAHv2f4N2rrEPEqij/f7XOESmVv9Ra8G454LXWORrgoYW/0QpA97QKYCB49wVU/lZU/tIEmwHLWodoAK0A9EEDwJAF7z4PnGidI1Iqf2mKt1kHaIiHFv6mcwCYBcwdepTm0QAwREX5f8k6R6RU/tIkzjpAA8yl2AMAOgaAJM1GgHssEjWMBoAhCd59DpW/FZW/NEbwbllgJ+scDXBP0fXA4isAAGHIYZpow+DdytYh2i54dzxwknWOSKn8pWm2AvS+PLHFOl4DQPcmATtah2izovxPts4RKZW/NJGW/8sZdwD4/RCDNNk7rQO0VfDuOFT+VlT+0lS6AbCcxTp+yQFA9wCUowFgAIJ3/wycYp0jUip/aaTg3fLADtY5GmKxjl9sAEjS7Elg5lDjNNOmwbu1rEO0SVH+p1rniJTKX5psG2BF6xANMLPo+JctuQIAugxQ1jusA7RF8O5YVP5WVP7SdFr+L2epbh9tANCNgOXoMkAFgnfHAF+2zhEplb+0gW4ALGepbtcA0DutAPSpKP/TrHNESuUvjRe8WwHY1jpHQ5QaAHQJoJy1gnebWodoquDd0aj8raj8pS22B6ZYh2iIUpcAHgDmDT5LK+gyQA+Cd58FTrfOESmVv7SJlv/LmUfe7YtZagDQlsBdeZd1gKYpyv8M6xyRUvlL2+gGwHIW2wJ4odFWAABuG3CYtti5eAZVSgjefQaVvxWVv7RK8G4lYGvrHA0xaqePNQDcOsAgbbIi2oCilODdUcCZ1jkipfKXNtoRWM46REOM2uljDQC3DDBI2+g+gAkU5f8V6xyRUvlLW+n6f3mjdvqoA0CSZo8ADw80Tnvsbh2gzoJ3R6Lyt6Lyl1YK3k0C9rHO0RAPF52+lLFWAECXAcpKgndvtA5RR8G7TwNnWeeIlMpf2mwnYH3rEA0xZpePNwDoMkB5H7IOUDdF+Z9tnSNSKn9pu49YB2iQMbtcA0A19iuWpAQI3h2Byt+Kyl9ardj9T8v/5fU0ANwDPFN9llZan3xHqugV5X+OdY5IqfwlBnsCq1qHaIhnGGdfnzEHgCTNXgJ+O4hELfVB6wDWgneHo/K3ovKXWGj5v7zfFl0+qvFWAECXAbrx/uDdstYhrATvDgO+ap0jUip/iULwbg1gV+scDTJuh080AOhJgPJWJ9KtgYvyP9c6R6RU/hKT/YBoP2j1YNwOn2gAuB1Yav9gGVN0TwME7z6Fyt+Kyl9is791gAYZIe/wMY07ACRp9jRwZ5WJWm6v4N006xDDErz7J+A86xyRUvlLVIJ3bwC2ss7RIHcWHT6miVYAAK6pKEwMpgF7WYcYhqL8z7fOESmVv8RIN/915+qJ/kCZAeDaCoLEpPVPAwTvPonK34rKX6JT7LPyYescDTPhh/cyA8B/ALP7zxKNXYJ3q1uHGJTg3SdQ+VtR+Uus3gqsYx2iQZ6gxOX7CQeAJM1GgBuqSBSJZWnpjSpF+X8N0K6Hw6fyl5i18j11gK4runtcZVYAQPcBdOvw4N0y1iGqFLw7FJW/FZW/RCt4NxXw1jkaZsLr/1B+ALgOWNB7luisB7zPOkRVivL/Oip/Cyp/id17gZWtQzTICHB9mT9YagBI0ux/gLv7SRSho6wDVCF493FU/lZU/iLwUesADXNHkmZPlPmDZVcAQJcBurVt8G5b6xD9CN59DPgGKn8LKn+JXvDuTUS6w2ofSnd1NwOAHgfsXmNXAYryvwCVvwWVv0jueOsADVTq+j90NwDcBjzZfZaovS94t551iG4F7w5B5W9F5S8CBO82Rjf/detx4K6yf7j0AFAcKXhjL4kitgxwmHWIbgTvDgb+DZW/BZW/yCLH0d2HVCn5+N9C3f7LvbzLPy9wSPCuEXewFuX/TVT+FlT+IoXg3fpEeLhaBa7o5g93OwBcAczv8ntitwpwoHWIiQTvDkLlb0XlL7K4Y9Cxv92aA1zVzTd0NQAUJwvpaYDuHVHnjYGK8r8Qlb8Flb9Ih+DdWjTgQ1MNXZWk2dxuvqGX6yuX9fA9sduAmp4SGLw7EJW/FZW/yNI+A0yxDtFAP+72G3oZAK4E5vXwfbH7rHWAJQXvDgC+hcrfgspfZAnBu+nAodY5GuhZunj8b6GuB4Akzbq+ziAAbBe828M6xEIqf1Mqf5HRHQFMsw7RQL9I0qzrD+a9PmKhywC9OTV4Z/5YS/Duo+Tlb54lQip/kVEE71ahYY9N10jXy//QewFcRX7HoXTnjRgfa1mU/0Wo/C2o/EXG9klgNesQDfQMPd6c31MJFEsNV/byvcKJwbsVLH5w8O4fUflbUfmLjKE48vdI6xwNdWWSZs/18o39FIEuA/RmHeBTw/6hwbv9gYtR+VtQ+YuM7xDgVdYhGqqn5X/orwyuBZ7u4/tjdlzwbmhLXUX5X4LK34LKX2QcwbvlgaOtczTU0/RxUF/PhVAsOXS17aC87JXAscP4QcG7j6Dyt6LyF5nYR4HXWIdoqCuSNOt5d95+S+HSPr8/ZkcE79Ye5A8oyv/bqPwtqPxFJlCshH7JOkeD9dXB/RbDjcCMPl8jVlOBEwb14sG7D6Pyt6LyFynnFHTtv1cz6POE3r7KIUmzBeR3lUtvDgjebVL1ixbl/x1U/hZU/iIlBO+2Aj5unaPBLio6uGdVFMTF5G960r1lyCfgygTvPoQ++VtR+YuUUGyI9g30PtWrF8m7ty99/8tP0uxRtDVwP/YO3u1UxQsF7z5I/sm/ticPtpjKX6S8Q4CtrUM02FVF9/alqunrwopeJ1bfDN71dfpVUf6XovK3oPIXKSl4tzpwqnWOhqukc6saAK4F/qui14rRJsDnev3m4N1+qPytqPxFunM68ArrEA32X/Tx7H+nSgaAJM1eooLrEZH75+Ddpt1+U1H+30Xlb0HlL9KF4N325M/9S+8uLjq3b1XegHERMFLh68VmOeBb3ZwWGLz7ACp/Kyp/kS4E75YBvo6OIO/HCBU+eVfZAJCk2UzguqpeL1LbUPKcgODdvsD3UPlbUPmLdO9TwObWIRruuqJrK1H1Ixi6GbB/Jwfv1h3vDxTl/31U/hZU/iJdCt6tBZxonaMFKu3YqgeAK4G+H02I3ErABWP9fwbv3o/K34rKX6Q3ZwKrWIdouEfJO7YylQ4ASZq9CJxf5WtGarfisb7FqPxNqfxFehC8exuw1PuZdO38omMrM4hdmC4A5gzgdWNzTvBu+sJ/CN7tQ17+y9pFipbKX6QHwbvlgK9Z52iBOYyzMtyrygeAJM3+l/z4WenPGsDZ8HL5/wCVvwWVv0jvPgO8wTpEC1xSdGulJi1Y0NdZAqMK3r0WeADt81yFs4HDUPlbUPmL9Ch4tyVwK9DXLqfCCLBRkmZ/qfqFBzIAAATvfgr4gby4yOCp/EV6FLxbBbgL2NA6SwukSZr9wyBeeJCf0M8c4GuLDJLKX6Q/30TlX5WBdenABoAkzW4HbhnU64sMiMpfpA/Bu48D+1rnaIlbii4diEFfo//KgF9fpEoqf5E+BO82B86xztEiA+3QQQ8AlwMPDvhniFRB5S/Sh+DdSsCPgRWss7TEg+QdOjADHQCSNBsBzhrkzxCpgMpfpH8XAK+3DtEiZxUdOjDDeEzv28DsIfwckV6o/EX6FLw7CPiQdY4WmU3enQM18AEgSbN5aBVA6knlL9Kn4N0bgfOsc7TMWUV3DtSwNuo5F3h8SD9LpAyVv0ifgncrAj8BplpnaZHHyTtz4IYyACRp9ixw2jB+lkgJKn+RanwNbfVbtdOKzhy4YW7V+3V0VLDYU/mLVCB4tz/wUescLfMoeVcOxdAGgOJ6xqnD+nkio1D5i1QgeLcJQyyqiJw6jGv/Cw37sJ5vArOG/DNFQOUvUong3VTy6/7TrLO0zCzyjhyaoQ4ASZrNB04a5s8UQeUvUong3TLkR5Nvap2lhU4qOnJoLI7rvQSYYfBzJU4qf5HqXAC81zpEC80g78ahGvoAkKTZC8CJw/65EiWVv0hFgncnAQdb52ipE4tuHCqLFQCA7wL3G/1siYPKX6QiwbvDgM9Z52ip+8k7cehMBoAkzV4CTrD42RIFlb9IRYJ3+6IT/gbphKITh85qBQDgR8Bdhj9f2knlL1KR4N07gEux7Yo2u4u8C02Y/Y+apNkC4Airny+tpPIXqUjwbivg58Dy1lla7IiiC02YTnVJmt0C/NAyg7SGyl+kIsG7jYBrgJWss7TYD4sONFOHZZ1jgbnWIaTRVP4iFQnerQVcB6xhnaXF5pJ3nynzASBJs1nooCDpncpfpCLBu1WBa4ENrLO03GlF95kyHwAKZwAzrUNI46j8RSoSvFsBuAJIrLO03EzyzjNXiwGgOPzgGOsc0igqf5GKFFv8/hDY2TpLBI4Z5oE/46nFAACQpNllwG+sc0gjqPxFqvUNtMXvMPym6LpaWNY6wBKOAO6gRoOJ1I7KX6QixSf/bwCHWGeJwAg1e/S9VkWbpNnvMDgQQRpD5S9SkeKa/09R+Q/LJUXH1UatBoDC8cBT1iGkdlT+IhUp7va/Di37D8tT5N1WK7UbAJI0+ys1eD5SakXlL1KR4jn/m9ENf8N0bNFttVK7AaDwTeDX1iGkFlT+IhUpdvi7BT3qN0y/Ju+02pm0YIHZNsTjCt5tDPwemGKdRcyo/EUqUuztfw3a4W+Y5gObJ2n2J+sgo6nrCgDFv7ATrXOIGZW/SEWKU/1uQuU/bCfWtfyhxgNA4QwgWIeQoVP5i1QkeLcvcBU62GfYAjXZ8W8stR4AkjR7ATgYeMk6iwyNyl+kIsG7w4AfoCN9h+0l4OCiw2qr1gMAQJJmdwDnWueQoVD5i1QkeHcS+Xtn7d/nW+jcortqrW47AY7lC+TPq+qEqvZS+YtUoNjd7wLy1VMZvhnknVV7jZgMkzSbAxxqnUMGRuUvUoHg3VTy3f1U/nYOLTqr9hoxAAAkaXY9cKl1Dqmcyl+kAsG7TYD/QLv7Wbq06KpGaMwAUPg08Ih1CKmMyl+kAsG7/YE7gU2ts0TsEfKOaozabgQ0luCdA24EJllnkb6o/EX6FLxbEfga8FHjKLFbALwjSbPMOkg3mrYCQPEv+EzrHNIXlb9In4J3byT/1P9R4ygCZzat/KGBA0Dh88Dd1iGkJyp/kT4F7w4C7gDeYJ1FuJu8kxqncZcAFipuePkdMNU6i5Sm8hfpQ/BuJfJH/D5knUUAmAdsmaTZfdZBetHUFQCKf+FHWeeQ0lT+In0I3m0O3IXKv06Oamr5Q4NXABYK3l0B7GGdQ8al8hfpQ/Du48A5wArWWeRlVyZptqd1iH40ZSfA8RxEfujCmtZBZFQqf5EeBe9WIT9Lfl/rLLKYx8i7p9EaewlgoSTNHgcOIH8MQ+rnPJW/SPeCd1uSL/mr/OtlAXBA0T2N1vhLAAsF774KHG6dQ0b1XeDIJM1mWwcRqbvg3XLAZ4ATgCm2aWQU5yZpdoR1iCo0fgWgwzHk07LUz0eAPwbvPmgdRKTOgndvA34PnIrKv47uIu+aVmjNCgBA8G498v+BpltnkTFdQ35YxkzrICJ1Ebxbi3yDMw3J9TUb2CpJs4etg1SlVQMAQPDuXeQl06bVjbZ5FvgccH6SZiPWYUSsFEf3fgo4EVjFOI6MbQTYrUkH/ZTRupIs/gdqxFnMEVsJ+Cpwa/BOh5dIlIJ325OvWJ6Dyr/uvtC28ocWrgAABO8mAT8H9rLOIhN6AfgycHKSZvOtw4gMWvBudeB08j38dahZ/V0O7J2kWevKspUDAEDwblXyvbI3ss4ipdwHfCxJs19bBxEZhODdZOAQ8hv8XmEcR8p5ANg6SbOnrIMMQmsHAIBiefl2YJp1Fint58DxTd5eU2RJwbutgG8AW1tnkdLmANsmaXavdZBBafUAABC8+wDwQ+sc0pWXgEuAE5I0e8Q6jEivgnerAacAH6eF91y13H5Jmv3IOsQgtX4AAAjenQ182jqHdG0e+c2CpyVp9qR1GJGygnfLk1/j/xLwKts00oNzkjQ70jrEoMUyACwL/BLY2TqL9OR/ya+bnp+k2XPWYUTGErybSn6d/2jgNcZxpDc3A29P0uxF6yCDFsUAABC8m05+P8CG1lmkZ7OALwKXav8AqZPi0J5PAkeiT/xN9iD5df8oti2PZgAACN5tCNwGrG6dRfryB+C4JM2utA4icSs+WBwBHAasZhxH+vMEsF2SZg9aBxmWqAYAeHnzjV+ic7Xb4Dby7VMvT9LsJeswEo9i697PAIeip4za4DnyZf9brYMMU3QDAEDwbh/gMrQJR1vMIL9Z8OIkzZ6xDiPtFbxbn/wwmAPRYT1tsQDYN0mzn1gHGbYoBwCA4N3R5LtxSXs8DVwInNemAzvEXvBuY+A44EPAssZxpFrHJGl2hnUIC9EOAADBu2+QL+FJu7wE/Aw4K0mz263DSHMF794EHA949Bx/G12QpNknrENYiX0AWAa4Ani3dRYZmNuBs4Cf6T4BKaN4lO+95M/xv8s2jQzQ1cCeMb8vRD0AAATvViJ/7nML6ywyUA8D55I/QviEdRipl+IAsbcC+5N/2l/ZNJAM2t3AzkmaPWsdxFL0AwC8fEfvb4F1rLPIwL0IXAf8gPzpgTnGecRQ8O4NwEeAD6O//7GYBWyTpNmj1kGsaQAoFG8EN6M9AmIyh/yoz+8D18ew85dA8G4NYD/yT/tbGceR4XqC/JP/H62D1IEGgA7Buy2AXwGrWmeRoXsC+DH5ysCtbTz7O2bBuxWAPck/7e+K7uSP0VPA25I0u9s6SF1oAFhC8G474Aa0uUfMHiI/QfL7SZr9wTiL9Ki4rr8Teenvgwb7mM0B3pmk2W3WQepEA8AogncOuArtFigQyP9buAG4JUmz543zyDiKm3p3BBx56a9vGkjq4Dlg9yTNMusgdaMBYAzBu/eQP0u+nHUWqY255PeJXA/ckKTZvcZ5olcs7W9PXvhvA7ZGf2dlkReA9yVp9gvrIHWkAWAcwbv3ky8FawMQGc2jwI3kqwM36q7iwQveLQ9sQ172DtgWbckroxsB9kvS7MfWQepKA8AEgncHABehcwNkYveSDwM3AL/RuQT9C94tC7yZvPDfBuwArGgaSppgAXBQkmaXWAepMw0AJQTvDiPfREakrAXkZ4vf3fmVpNlfTVPVXPBuOWAzFn3C3wltyiPdOzxJs/OsQ9SdBoCSgnfHAadY55DG+2+WHgpm2EYavuDdq4GNO75eX/z6WvSInvTn+CTNTrUO0QQaALqgIUAG5EnyYeA/gT8DM8l3K5uVpNlsy2D9KG7Q24jFi37hlx7Jk0FQ+XdBA0CXissBX0X3BMhwzKMYBoqvmUv886xh3mtQPFs/DViJfGm+82tdFi/5ddENtDIcC4AjtOzfHQ0APShuDPwWenOTeniq+JpbfM2b4NfO308mL+8lC32sf14JDb9SLyPAwbrhr3saAHpUPCL4PfTMsYiIlReAD+tRv95oAOhDsVnQT9COgSIiw/YcsI82+emdBoA+FdsGX4HODhARGZY5wJ7a3rc/GgAqUBwgdA26s1lEZNCeAnbTwT790wBQkeIo4euB1a2ziIi01BPAu3SkbzV0F3tFiv8gdyZ/NEtERKo1C9hZ5V8dDQAVStLsj+QHleg/UBGR6twNbFO8x0pFNABUrDgRbmfgaussIiItcDX5J3+dtlkxDQADkKTZs8CewAXWWUREGuwC8rv9n7UO0ka6CXDAgndHA6eh3dNERMpaABybpNkZ1kHaTAPAEATv9gEuRRsGiYhM5Dlg/yTNfmIdpO00AAxJ8G574HL0mKCIyFieAPZK0uxW6yAx0AAwRMG7Dck3DNrQOouISM08SL7Bz4PWQWKhmwCHqPgPe1vgZussIiI1cjOwrcp/uDQADFmSZrOBtwPnWGcREamBc4C3F++NMkS6BGAoePcB4FvoICERic8c4OAkzX5kHSRWGgCMBe82BX4GbGSdRURkSB4A3pek2b3WQWKmSwDGir8AW5M/ISAi0naXA1ur/O1pAKiBJM2eAvYGPgeMGMcRERmEEfL3uL2L9zwxpksANRO8exfwA2C6dRYRkYrMBj6YpNn11kFkEQ0ANRS8Ww9Iga2ss4iI9OkuwCdp9rB1EFmcLgHUUPEXZQfgXPI9sUVEmmYB+XvYDir/etIKQM0F73YFLgHWtM4iIlLSY8ABSZpdax1ExqYVgJor/gIlwJXWWURESrgSSFT+9acVgAYJ3h0KnAVMtc4iIrKEecBRSZpdYB1EytEA0DDBu03InxLYwjqLiEjhbvK7/O+zDiLl6RJAwxR/wbYFzkA3CIqIrQXk70XbqvybRysADRa8c8ClwNrWWUQkOo8A+ydpllkHkd5oBaDBir94m5EPASIiw3IpsJnKv9m0AtASxQ6CFwAbWGcRkdaaARyqHf3aQSsALVH8hdwMOBt4yTiOiLTLS+TvLZup/NtDKwAtFLzbGvgW+f4BIiL9CMDBSZrdYR1EqqUVgBYq/qK+mfzkrfnGcUSkmeaTv4e8WeXfTloBaLng3cbAhcBO1llEpDF+DRySpNmfrIPI4GgFoOWKv8B/DxwK6AxuERnPU+TvFX+v8m8/rQBEJHj3KuAU4AA0/InIIiPkh44dn6TZX63DyHBoAIhQ8G5L4KvAjtZZRMTcb4AjkjT7nXUQGS4NABEL3u0LnA6sa51FRIZuJnBMkmaXWQcRGxoAIhe8mwocDRwLrGgcR0QGby77n22LAAAEPklEQVRwGnBGkmbzrMOIHQ0AAkDwbh3yN4X9rLOIyMD8EDg2SbNZ1kHEngYAWUzwbgfy+wO2ss4iIpW5i/w6/y3WQaQ+dCe4LKZ4g9ga+CBwv3EcEenP/eR/l7dW+cuStAIgYwreLQN8BPgiOmRIpElmACcC303STGeDyKg0AMiEgnfLke8d8HlgHeM4IjK2WcBJwCVJmr1gHUbqTQOAlBa8mwJ8DDgOWMs4jogs8ihwKvDNJM10/oeUogFAulY8OvhJ8kcH1zCOIxKzx8mf3vm6HumTbmkAkJ4F71YCDgeOAqYbxxGJyWzgLODcJM2etQ4jzaQBQPpWrAh8lHwQ2NA2jUirPUhe/N/WJ37plwYAqUzwbjKwF/AZYAfjOCJtcgvwFeDyJM1GrMNIO2gAkIEI3m0LfBbYG+03IdKLEeDnwJlJmt1uHUbaRwOADFTw7rXAkeSPEU4zjiPSBHPIj+Y9O0mzv1iHkfbSACBDEbx7JXAo8Cn0CKHIaB4FzgcuSNLsf63DSPtpAJChCt4tC+wBHALsgi4PSNxGgOuAC4ErkzR70TiPREQDgJgJ3q0LHAQcCLzGOI7IMP0XcDFwUZJmM63DSJw0AIi54syBXclXBXYHlrVNJDIQLwJXkX/av1Z79Is1DQBSK8G7tchXBA5CBxBJO8wALgIuTtLsUeswIgtpAJBaCt5NAt4B7A/sCaxim0ikK08DVwCXAjcmaaY3WqkdDQBSe8UhRLsC7ye/gXBl20Qio3oGuBL4MfkSvw7lkVrTACCNErxbAdiNfBh4D7CSbSKJ3LPAL8hL/5okzZ4zziNSmgYAaaziDIJ3kw8Du6ONhmQ45pDfzPdj4GrtyS9NpQFAWiF4tyL5ELAn+f4COqZYqvQ4+fP6VwBXJWk21ziPSN80AEjrFIcSbUW+OrAbsDXacEi6MwLcAVwDXA3cpUN4pG00AEjrBe9WB95FPhDsAqxum0hq6gnyT/lXA9cnafaEcR6RgdIAIFEpVgfeTL4y8O7i91odiNMIcCd54V8D3KlP+RITDQASteDdKsC2wPbADsA26DHDtnoG+C1wC3ArcHuSZk/bRhKxowFApEOxLfFm5MPADuSDwXqmoaRXD5MX/S3F1z3afldkEQ0AIhMI3q3NomFgO/IBYappKFnSPOAe4DaK0k/S7BHbSCL1pgFApEvFfQQbAZsDSfG1ObCuZa6IzAR+D4Ti6/fAA7p+L9IdDQAiFQnerUa+OtA5GGwGrGiZq8Hmkn+q7yz6e5I0e9I0lUhLaAAQGaBitWAdYH3y0w2X/HVt4n0KYQR4hPy0vIdG+XWWPtWLDI4GABFDwbvlyAeEJYeDNYHpHV9NW0WYC8zu+HqMpUt+VpJmLxjlE4meBgCRBigOQVo4DKzO4sPBwq9pwBRg+eLXMr8HmA88X/xa5vdzWLzcF349sfD3OhRHpP7+P7g6EGMjHA6VAAAAAElFTkSuQmCC;" vertex="1" parent="1">
          <mxGeometry x="130" y="430" width="44" height="44" as="geometry" />
        </mxCell>
        <mxCell id="t371tnkArtYXUVjtmktd-33" value="" style="shape=mxgraph.cisco.servers.fileserver;sketch=0;html=1;pointerEvents=1;dashed=0;fillColor=#1A1A1A;strokeColor=#ffffff;strokeWidth=2;verticalLabelPosition=bottom;verticalAlign=top;align=center;outlineConnect=0;" parent="1" vertex="1">
          <mxGeometry x="545" y="360" width="70" height="133" as="geometry" />
        </mxCell>
        <mxCell id="RBwo3LP9QpBpMymfKp9m-23" value="&lt;font style=&quot;font-size: 15px;&quot;&gt;The LDAP REST API and the OpenLDAP servers only accept local network access&lt;/font&gt;" style="text;html=1;strokeColor=none;fillColor=none;align=center;verticalAlign=middle;whiteSpace=wrap;rounded=0;" vertex="1" parent="1">
          <mxGeometry x="397" y="360" width="106" height="100" as="geometry" />
        </mxCell>
      </root>
    </mxGraphModel>
  </diagram>
</mxfile>
